{
    "Items": [
        {
            "Octave": 1,
            "NoteNumber": 33,
            "Length": 1439.0,
            "Time": 480.0,
            "EndTime": 1919.0,
            "Velocity": 64,
            "OffVelocity": 0
        },
        {
            "Octave": 3,
            "NoteNumber": 57,
            "Length": 959.0,
            "Time": 960.0,
            "EndTime": 1919.0,
            "Velocity": 64,
            "OffVelocity": 0
        },
        {
            "Octave": 4,
            "NoteNumber": 60,
            "Length": 959.0,
            "Time": 960.0,
            "EndTime": 1919.0,
            "Velocity": 64,
            "OffVelocity": 0
        },
        {
            "Octave": 4,
            "NoteNumber": 64,
            "Length": 959.0,
            "Time": 960.0,
            "EndTime": 1919.0,
            "Velocity": 64,
            "OffVelocity": 0
        },
        {
            "Octave": 3,
            "NoteNumber": 57,
            "Length": 479.0,
            "Time": 1440.0,
            "EndTime": 1919.0,
            "Velocity": 64,
            "OffVelocity": 0
        },
        {
            "Octave": 4,
            "NoteNumber": 60,
            "Length": 479.0,
            "Time": 1440.0,
            "EndTime": 1919.0,
            "Velocity": 64,
            "OffVelocity": 0
        },
        {
            "Octave": 4,
            "NoteNumber": 64,
            "Length": 479.0,
            "Time": 1440.0,
            "EndTime": 1919.0,
            "Velocity": 64,
            "OffVelocity": 0
        },
        {
            "Octave": 2,
            "NoteNumber": 38,
            "Length": 1439.0,
            "Time": 1920.0,
            "EndTime": 3359.0,
            "Velocity": 64,
            "OffVelocity": 0
        },
        {
            "Octave": 3,
            "NoteNumber": 57,
            "Length": 959.0,
            "Time": 2400.0,
            "EndTime": 3359.0,
            "Velocity": 64,
            "OffVelocity": 0
        },
        {
            "Octave": 4,
            "NoteNumber": 62,
            "Length": 959.0,
            "Time": 2400.0,
            "EndTime": 3359.0,
            "Velocity": 64,
            "OffVelocity": 0
        },
        {
            "Octave": 4,
            "NoteNumber": 65,
            "Length": 959.0,
            "Time": 2400.0,
            "EndTime": 3359.0,
            "Velocity": 64,
            "OffVelocity": 0
        },
        {
            "Octave": 3,
            "NoteNumber": 57,
            "Length": 479.0,
            "Time": 2880.0,
            "EndTime": 3359.0,
            "Velocity": 64,
            "OffVelocity": 0
        },
        {
            "Octave": 4,
            "NoteNumber": 62,
            "Length": 479.0,
            "Time": 2880.0,
            "EndTime": 3359.0,
            "Velocity": 64,
            "OffVelocity": 0
        },
        {
            "Octave": 4,
            "NoteNumber": 65,
            "Length": 479.0,
            "Time": 2880.0,
            "EndTime": 3359.0,
            "Velocity": 64,
            "OffVelocity": 0
        },
        {
            "Octave": 2,
            "NoteNumber": 43,
            "Length": 1439.0,
            "Time": 3360.0,
            "EndTime": 4799.0,
            "Velocity": 64,
            "OffVelocity": 0
        },
        {
            "Octave": 3,
            "NoteNumber": 55,
            "Length": 959.0,
            "Time": 3840.0,
            "EndTime": 4799.0,
            "Velocity": 64,
            "OffVelocity": 0
        },
        {
            "Octave": 3,
            "NoteNumber": 59,
            "Length": 959.0,
            "Time": 3840.0,
            "EndTime": 4799.0,
            "Velocity": 64,
            "OffVelocity": 0
        },
        {
            "Octave": 4,
            "NoteNumber": 65,
            "Length": 959.0,
            "Time": 3840.0,
            "EndTime": 4799.0,
            "Velocity": 64,
            "OffVelocity": 0
        },
        {
            "Octave": 3,
            "NoteNumber": 55,
            "Length": 479.0,
            "Time": 4320.0,
            "EndTime": 4799.0,
            "Velocity": 64,
            "OffVelocity": 0
        },
        {
            "Octave": 3,
            "NoteNumber": 59,
            "Length": 479.0,
            "Time": 4320.0,
            "EndTime": 4799.0,
            "Velocity": 64,
            "OffVelocity": 0
        },
        {
            "Octave": 4,
            "NoteNumber": 65,
            "Length": 479.0,
            "Time": 4320.0,
            "EndTime": 4799.0,
            "Velocity": 64,
            "OffVelocity": 0
        },
        {
            "Octave": 3,
            "NoteNumber": 48,
            "Length": 1439.0,
            "Time": 4800.0,
            "EndTime": 6239.0,
            "Velocity": 64,
            "OffVelocity": 0
        },
        {
            "Octave": 3,
            "NoteNumber": 55,
            "Length": 959.0,
            "Time": 5280.0,
            "EndTime": 6239.0,
            "Velocity": 64,
            "OffVelocity": 0
        },
        {
            "Octave": 4,
            "NoteNumber": 60,
            "Length": 959.0,
            "Time": 5280.0,
            "EndTime": 6239.0,
            "Velocity": 64,
            "OffVelocity": 0
        },
        {
            "Octave": 4,
            "NoteNumber": 64,
            "Length": 959.0,
            "Time": 5280.0,
            "EndTime": 6239.0,
            "Velocity": 64,
            "OffVelocity": 0
        },
        {
            "Octave": 3,
            "NoteNumber": 55,
            "Length": 479.0,
            "Time": 5760.0,
            "EndTime": 6239.0,
            "Velocity": 64,
            "OffVelocity": 0
        },
        {
            "Octave": 4,
            "NoteNumber": 60,
            "Length": 479.0,
            "Time": 5760.0,
            "EndTime": 6239.0,
            "Velocity": 64,
            "OffVelocity": 0
        },
        {
            "Octave": 4,
            "NoteNumber": 64,
            "Length": 479.0,
            "Time": 5760.0,
            "EndTime": 6239.0,
            "Velocity": 64,
            "OffVelocity": 0
        },
        {
            "Octave": 2,
            "NoteNumber": 45,
            "Length": 1439.0,
            "Time": 6240.0,
            "EndTime": 7679.0,
            "Velocity": 64,
            "OffVelocity": 0
        },
        {
            "Octave": 3,
            "NoteNumber": 57,
            "Length": 959.0,
            "Time": 6720.0,
            "EndTime": 7679.0,
            "Velocity": 64,
            "OffVelocity": 0
        },
        {
            "Octave": 4,
            "NoteNumber": 60,
            "Length": 959.0,
            "Time": 6720.0,
            "EndTime": 7679.0,
            "Velocity": 64,
            "OffVelocity": 0
        },
        {
            "Octave": 4,
            "NoteNumber": 64,
            "Length": 959.0,
            "Time": 6720.0,
            "EndTime": 7679.0,
            "Velocity": 64,
            "OffVelocity": 0
        },
        {
            "Octave": 3,
            "NoteNumber": 57,
            "Length": 479.0,
            "Time": 7200.0,
            "EndTime": 7679.0,
            "Velocity": 64,
            "OffVelocity": 0
        },
        {
            "Octave": 4,
            "NoteNumber": 60,
            "Length": 479.0,
            "Time": 7200.0,
            "EndTime": 7679.0,
            "Velocity": 64,
            "OffVelocity": 0
        },
        {
            "Octave": 4,
            "NoteNumber": 64,
            "Length": 479.0,
            "Time": 7200.0,
            "EndTime": 7679.0,
            "Velocity": 64,
            "OffVelocity": 0
        },
        {
            "Octave": 2,
            "NoteNumber": 38,
            "Length": 1439.0,
            "Time": 7680.0,
            "EndTime": 9119.0,
            "Velocity": 64,
            "OffVelocity": 0
        },
        {
            "Octave": 3,
            "NoteNumber": 57,
            "Length": 959.0,
            "Time": 8160.0,
            "EndTime": 9119.0,
            "Velocity": 64,
            "OffVelocity": 0
        },
        {
            "Octave": 4,
            "NoteNumber": 62,
            "Length": 959.0,
            "Time": 8160.0,
            "EndTime": 9119.0,
            "Velocity": 64,
            "OffVelocity": 0
        },
        {
            "Octave": 4,
            "NoteNumber": 65,
            "Length": 959.0,
            "Time": 8160.0,
            "EndTime": 9119.0,
            "Velocity": 64,
            "OffVelocity": 0
        },
        {
            "Octave": 3,
            "NoteNumber": 57,
            "Length": 479.0,
            "Time": 8640.0,
            "EndTime": 9119.0,
            "Velocity": 64,
            "OffVelocity": 0
        },
        {
            "Octave": 4,
            "NoteNumber": 62,
            "Length": 479.0,
            "Time": 8640.0,
            "EndTime": 9119.0,
            "Velocity": 64,
            "OffVelocity": 0
        },
        {
            "Octave": 4,
            "NoteNumber": 65,
            "Length": 479.0,
            "Time": 8640.0,
            "EndTime": 9119.0,
            "Velocity": 64,
            "OffVelocity": 0
        },
        {
            "Octave": 2,
            "NoteNumber": 43,
            "Length": 1439.0,
            "Time": 9120.0,
            "EndTime": 10559.0,
            "Velocity": 64,
            "OffVelocity": 0
        },
        {
            "Octave": 3,
            "NoteNumber": 55,
            "Length": 959.0,
            "Time": 9600.0,
            "EndTime": 10559.0,
            "Velocity": 64,
            "OffVelocity": 0
        },
        {
            "Octave": 3,
            "NoteNumber": 59,
            "Length": 959.0,
            "Time": 9600.0,
            "EndTime": 10559.0,
            "Velocity": 64,
            "OffVelocity": 0
        },
        {
            "Octave": 4,
            "NoteNumber": 65,
            "Length": 959.0,
            "Time": 9600.0,
            "EndTime": 10559.0,
            "Velocity": 64,
            "OffVelocity": 0
        },
        {
            "Octave": 3,
            "NoteNumber": 55,
            "Length": 479.0,
            "Time": 10080.0,
            "EndTime": 10559.0,
            "Velocity": 64,
            "OffVelocity": 0
        },
        {
            "Octave": 3,
            "NoteNumber": 59,
            "Length": 479.0,
            "Time": 10080.0,
            "EndTime": 10559.0,
            "Velocity": 64,
            "OffVelocity": 0
        },
        {
            "Octave": 4,
            "NoteNumber": 65,
            "Length": 479.0,
            "Time": 10080.0,
            "EndTime": 10559.0,
            "Velocity": 64,
            "OffVelocity": 0
        },
        {
            "Octave": 3,
            "NoteNumber": 48,
            "Length": 959.0,
            "Time": 10560.0,
            "EndTime": 11519.0,
            "Velocity": 64,
            "OffVelocity": 0
        },
        {
            "Octave": 3,
            "NoteNumber": 55,
            "Length": 479.0,
            "Time": 11040.0,
            "EndTime": 11519.0,
            "Velocity": 64,
            "OffVelocity": 0
        },
        {
            "Octave": 4,
            "NoteNumber": 60,
            "Length": 479.0,
            "Time": 11040.0,
            "EndTime": 11519.0,
            "Velocity": 64,
            "OffVelocity": 0
        },
        {
            "Octave": 4,
            "NoteNumber": 64,
            "Length": 479.0,
            "Time": 11040.0,
            "EndTime": 11519.0,
            "Velocity": 64,
            "OffVelocity": 0
        },
        {
            "Octave": 1,
            "NoteNumber": 33,
            "Length": 1439.0,
            "Time": 12000.0,
            "EndTime": 13439.0,
            "Velocity": 64,
            "OffVelocity": 0
        },
        {
            "Octave": 3,
            "NoteNumber": 57,
            "Length": 959.0,
            "Time": 12480.0,
            "EndTime": 13439.0,
            "Velocity": 64,
            "OffVelocity": 0
        },
        {
            "Octave": 4,
            "NoteNumber": 60,
            "Length": 959.0,
            "Time": 12480.0,
            "EndTime": 13439.0,
            "Velocity": 64,
            "OffVelocity": 0
        },
        {
            "Octave": 4,
            "NoteNumber": 64,
            "Length": 959.0,
            "Time": 12480.0,
            "EndTime": 13439.0,
            "Velocity": 64,
            "OffVelocity": 0
        },
        {
            "Octave": 3,
            "NoteNumber": 57,
            "Length": 479.0,
            "Time": 12960.0,
            "EndTime": 13439.0,
            "Velocity": 64,
            "OffVelocity": 0
        },
        {
            "Octave": 4,
            "NoteNumber": 60,
            "Length": 479.0,
            "Time": 12960.0,
            "EndTime": 13439.0,
            "Velocity": 64,
            "OffVelocity": 0
        },
        {
            "Octave": 4,
            "NoteNumber": 64,
            "Length": 479.0,
            "Time": 12960.0,
            "EndTime": 13439.0,
            "Velocity": 64,
            "OffVelocity": 0
        },
        {
            "Octave": 2,
            "NoteNumber": 38,
            "Length": 1439.0,
            "Time": 13440.0,
            "EndTime": 14879.0,
            "Velocity": 64,
            "OffVelocity": 0
        },
        {
            "Octave": 3,
            "NoteNumber": 57,
            "Length": 959.0,
            "Time": 13920.0,
            "EndTime": 14879.0,
            "Velocity": 64,
            "OffVelocity": 0
        },
        {
            "Octave": 4,
            "NoteNumber": 62,
            "Length": 959.0,
            "Time": 13920.0,
            "EndTime": 14879.0,
            "Velocity": 64,
            "OffVelocity": 0
        },
        {
            "Octave": 4,
            "NoteNumber": 65,
            "Length": 959.0,
            "Time": 13920.0,
            "EndTime": 14879.0,
            "Velocity": 64,
            "OffVelocity": 0
        },
        {
            "Octave": 3,
            "NoteNumber": 57,
            "Length": 479.0,
            "Time": 14400.0,
            "EndTime": 14879.0,
            "Velocity": 64,
            "OffVelocity": 0
        },
        {
            "Octave": 4,
            "NoteNumber": 62,
            "Length": 479.0,
            "Time": 14400.0,
            "EndTime": 14879.0,
            "Velocity": 64,
            "OffVelocity": 0
        },
        {
            "Octave": 4,
            "NoteNumber": 65,
            "Length": 479.0,
            "Time": 14400.0,
            "EndTime": 14879.0,
            "Velocity": 64,
            "OffVelocity": 0
        },
        {
            "Octave": 2,
            "NoteNumber": 43,
            "Length": 1439.0,
            "Time": 14880.0,
            "EndTime": 16319.0,
            "Velocity": 64,
            "OffVelocity": 0
        },
        {
            "Octave": 3,
            "NoteNumber": 55,
            "Length": 959.0,
            "Time": 15360.0,
            "EndTime": 16319.0,
            "Velocity": 64,
            "OffVelocity": 0
        },
        {
            "Octave": 3,
            "NoteNumber": 59,
            "Length": 959.0,
            "Time": 15360.0,
            "EndTime": 16319.0,
            "Velocity": 64,
            "OffVelocity": 0
        },
        {
            "Octave": 4,
            "NoteNumber": 65,
            "Length": 959.0,
            "Time": 15360.0,
            "EndTime": 16319.0,
            "Velocity": 64,
            "OffVelocity": 0
        },
        {
            "Octave": 3,
            "NoteNumber": 55,
            "Length": 479.0,
            "Time": 15840.0,
            "EndTime": 16319.0,
            "Velocity": 64,
            "OffVelocity": 0
        },
        {
            "Octave": 3,
            "NoteNumber": 59,
            "Length": 479.0,
            "Time": 15840.0,
            "EndTime": 16319.0,
            "Velocity": 64,
            "OffVelocity": 0
        },
        {
            "Octave": 4,
            "NoteNumber": 65,
            "Length": 479.0,
            "Time": 15840.0,
            "EndTime": 16319.0,
            "Velocity": 64,
            "OffVelocity": 0
        },
        {
            "Octave": 3,
            "NoteNumber": 48,
            "Length": 1439.0,
            "Time": 16320.0,
            "EndTime": 17759.0,
            "Velocity": 64,
            "OffVelocity": 0
        },
        {
            "Octave": 3,
            "NoteNumber": 55,
            "Length": 959.0,
            "Time": 16800.0,
            "EndTime": 17759.0,
            "Velocity": 64,
            "OffVelocity": 0
        },
        {
            "Octave": 4,
            "NoteNumber": 60,
            "Length": 959.0,
            "Time": 16800.0,
            "EndTime": 17759.0,
            "Velocity": 64,
            "OffVelocity": 0
        },
        {
            "Octave": 4,
            "NoteNumber": 64,
            "Length": 959.0,
            "Time": 16800.0,
            "EndTime": 17759.0,
            "Velocity": 64,
            "OffVelocity": 0
        },
        {
            "Octave": 3,
            "NoteNumber": 55,
            "Length": 479.0,
            "Time": 17280.0,
            "EndTime": 17759.0,
            "Velocity": 64,
            "OffVelocity": 0
        },
        {
            "Octave": 4,
            "NoteNumber": 60,
            "Length": 479.0,
            "Time": 17280.0,
            "EndTime": 17759.0,
            "Velocity": 64,
            "OffVelocity": 0
        },
        {
            "Octave": 4,
            "NoteNumber": 64,
            "Length": 479.0,
            "Time": 17280.0,
            "EndTime": 17759.0,
            "Velocity": 64,
            "OffVelocity": 0
        },
        {
            "Octave": 2,
            "NoteNumber": 45,
            "Length": 1439.0,
            "Time": 17760.0,
            "EndTime": 19199.0,
            "Velocity": 64,
            "OffVelocity": 0
        },
        {
            "Octave": 3,
            "NoteNumber": 57,
            "Length": 959.0,
            "Time": 18240.0,
            "EndTime": 19199.0,
            "Velocity": 64,
            "OffVelocity": 0
        },
        {
            "Octave": 4,
            "NoteNumber": 60,
            "Length": 959.0,
            "Time": 18240.0,
            "EndTime": 19199.0,
            "Velocity": 64,
            "OffVelocity": 0
        },
        {
            "Octave": 4,
            "NoteNumber": 64,
            "Length": 959.0,
            "Time": 18240.0,
            "EndTime": 19199.0,
            "Velocity": 64,
            "OffVelocity": 0
        },
        {
            "Octave": 3,
            "NoteNumber": 57,
            "Length": 479.0,
            "Time": 18720.0,
            "EndTime": 19199.0,
            "Velocity": 64,
            "OffVelocity": 0
        },
        {
            "Octave": 4,
            "NoteNumber": 60,
            "Length": 479.0,
            "Time": 18720.0,
            "EndTime": 19199.0,
            "Velocity": 64,
            "OffVelocity": 0
        },
        {
            "Octave": 4,
            "NoteNumber": 64,
            "Length": 479.0,
            "Time": 18720.0,
            "EndTime": 19199.0,
            "Velocity": 64,
            "OffVelocity": 0
        },
        {
            "Octave": 2,
            "NoteNumber": 38,
            "Length": 1439.0,
            "Time": 19200.0,
            "EndTime": 20639.0,
            "Velocity": 64,
            "OffVelocity": 0
        },
        {
            "Octave": 3,
            "NoteNumber": 57,
            "Length": 959.0,
            "Time": 19680.0,
            "EndTime": 20639.0,
            "Velocity": 64,
            "OffVelocity": 0
        },
        {
            "Octave": 4,
            "NoteNumber": 62,
            "Length": 959.0,
            "Time": 19680.0,
            "EndTime": 20639.0,
            "Velocity": 64,
            "OffVelocity": 0
        },
        {
            "Octave": 4,
            "NoteNumber": 65,
            "Length": 959.0,
            "Time": 19680.0,
            "EndTime": 20639.0,
            "Velocity": 64,
            "OffVelocity": 0
        },
        {
            "Octave": 3,
            "NoteNumber": 57,
            "Length": 479.0,
            "Time": 20160.0,
            "EndTime": 20639.0,
            "Velocity": 64,
            "OffVelocity": 0
        },
        {
            "Octave": 4,
            "NoteNumber": 62,
            "Length": 479.0,
            "Time": 20160.0,
            "EndTime": 20639.0,
            "Velocity": 64,
            "OffVelocity": 0
        },
        {
            "Octave": 4,
            "NoteNumber": 65,
            "Length": 479.0,
            "Time": 20160.0,
            "EndTime": 20639.0,
            "Velocity": 64,
            "OffVelocity": 0
        },
        {
            "Octave": 2,
            "NoteNumber": 43,
            "Length": 1439.0,
            "Time": 20640.0,
            "EndTime": 22079.0,
            "Velocity": 64,
            "OffVelocity": 0
        },
        {
            "Octave": 3,
            "NoteNumber": 55,
            "Length": 959.0,
            "Time": 21120.0,
            "EndTime": 22079.0,
            "Velocity": 64,
            "OffVelocity": 0
        },
        {
            "Octave": 3,
            "NoteNumber": 59,
            "Length": 959.0,
            "Time": 21120.0,
            "EndTime": 22079.0,
            "Velocity": 64,
            "OffVelocity": 0
        },
        {
            "Octave": 4,
            "NoteNumber": 65,
            "Length": 959.0,
            "Time": 21120.0,
            "EndTime": 22079.0,
            "Velocity": 64,
            "OffVelocity": 0
        },
        {
            "Octave": 3,
            "NoteNumber": 55,
            "Length": 479.0,
            "Time": 21600.0,
            "EndTime": 22079.0,
            "Velocity": 64,
            "OffVelocity": 0
        },
        {
            "Octave": 3,
            "NoteNumber": 59,
            "Length": 479.0,
            "Time": 21600.0,
            "EndTime": 22079.0,
            "Velocity": 64,
            "OffVelocity": 0
        },
        {
            "Octave": 4,
            "NoteNumber": 65,
            "Length": 479.0,
            "Time": 21600.0,
            "EndTime": 22079.0,
            "Velocity": 64,
            "OffVelocity": 0
        },
        {
            "Octave": 3,
            "NoteNumber": 48,
            "Length": 1439.0,
            "Time": 22080.0,
            "EndTime": 23519.0,
            "Velocity": 64,
            "OffVelocity": 0
        },
        {
            "Octave": 3,
            "NoteNumber": 55,
            "Length": 959.0,
            "Time": 22560.0,
            "EndTime": 23519.0,
            "Velocity": 64,
            "OffVelocity": 0
        },
        {
            "Octave": 4,
            "NoteNumber": 60,
            "Length": 959.0,
            "Time": 22560.0,
            "EndTime": 23519.0,
            "Velocity": 64,
            "OffVelocity": 0
        },
        {
            "Octave": 4,
            "NoteNumber": 64,
            "Length": 959.0,
            "Time": 22560.0,
            "EndTime": 23519.0,
            "Velocity": 64,
            "OffVelocity": 0
        },
        {
            "Octave": 3,
            "NoteNumber": 55,
            "Length": 479.0,
            "Time": 23040.0,
            "EndTime": 23519.0,
            "Velocity": 64,
            "OffVelocity": 0
        },
        {
            "Octave": 4,
            "NoteNumber": 60,
            "Length": 479.0,
            "Time": 23040.0,
            "EndTime": 23519.0,
            "Velocity": 64,
            "OffVelocity": 0
        },
        {
            "Octave": 4,
            "NoteNumber": 64,
            "Length": 479.0,
            "Time": 23040.0,
            "EndTime": 23519.0,
            "Velocity": 64,
            "OffVelocity": 0
        },
        {
            "Octave": 2,
            "NoteNumber": 40,
            "Length": 1439.0,
            "Time": 23520.0,
            "EndTime": 24959.0,
            "Velocity": 64,
            "OffVelocity": 0
        },
        {
            "Octave": 3,
            "NoteNumber": 52,
            "Length": 959.0,
            "Time": 24000.0,
            "EndTime": 24959.0,
            "Velocity": 64,
            "OffVelocity": 0
        },
        {
            "Octave": 3,
            "NoteNumber": 59,
            "Length": 959.0,
            "Time": 24000.0,
            "EndTime": 24959.0,
            "Velocity": 64,
            "OffVelocity": 0
        },
        {
            "Octave": 4,
            "NoteNumber": 62,
            "Length": 959.0,
            "Time": 24000.0,
            "EndTime": 24959.0,
            "Velocity": 64,
            "OffVelocity": 0
        },
        {
            "Octave": 3,
            "NoteNumber": 52,
            "Length": 479.0,
            "Time": 24480.0,
            "EndTime": 24959.0,
            "Velocity": 64,
            "OffVelocity": 0
        },
        {
            "Octave": 3,
            "NoteNumber": 56,
            "Length": 479.0,
            "Time": 24480.0,
            "EndTime": 24959.0,
            "Velocity": 64,
            "OffVelocity": 0
        },
        {
            "Octave": 4,
            "NoteNumber": 62,
            "Length": 479.0,
            "Time": 24480.0,
            "EndTime": 24959.0,
            "Velocity": 64,
            "OffVelocity": 0
        },
        {
            "Octave": 2,
            "NoteNumber": 45,
            "Length": 1439.0,
            "Time": 24960.0,
            "EndTime": 26399.0,
            "Velocity": 64,
            "OffVelocity": 0
        },
        {
            "Octave": 3,
            "NoteNumber": 52,
            "Length": 959.0,
            "Time": 25440.0,
            "EndTime": 26399.0,
            "Velocity": 64,
            "OffVelocity": 0
        },
        {
            "Octave": 3,
            "NoteNumber": 57,
            "Length": 959.0,
            "Time": 25440.0,
            "EndTime": 26399.0,
            "Velocity": 64,
            "OffVelocity": 0
        },
        {
            "Octave": 4,
            "NoteNumber": 60,
            "Length": 959.0,
            "Time": 25440.0,
            "EndTime": 26399.0,
            "Velocity": 64,
            "OffVelocity": 0
        },
        {
            "Octave": 3,
            "NoteNumber": 52,
            "Length": 479.0,
            "Time": 25920.0,
            "EndTime": 26399.0,
            "Velocity": 64,
            "OffVelocity": 0
        },
        {
            "Octave": 3,
            "NoteNumber": 57,
            "Length": 479.0,
            "Time": 25920.0,
            "EndTime": 26399.0,
            "Velocity": 64,
            "OffVelocity": 0
        },
        {
            "Octave": 4,
            "NoteNumber": 60,
            "Length": 479.0,
            "Time": 25920.0,
            "EndTime": 26399.0,
            "Velocity": 64,
            "OffVelocity": 0
        },
        {
            "Octave": 2,
            "NoteNumber": 40,
            "Length": 1439.0,
            "Time": 26400.0,
            "EndTime": 27839.0,
            "Velocity": 64,
            "OffVelocity": 0
        },
        {
            "Octave": 3,
            "NoteNumber": 52,
            "Length": 959.0,
            "Time": 26880.0,
            "EndTime": 27839.0,
            "Velocity": 64,
            "OffVelocity": 0
        },
        {
            "Octave": 3,
            "NoteNumber": 59,
            "Length": 959.0,
            "Time": 26880.0,
            "EndTime": 27839.0,
            "Velocity": 64,
            "OffVelocity": 0
        },
        {
            "Octave": 4,
            "NoteNumber": 62,
            "Length": 959.0,
            "Time": 26880.0,
            "EndTime": 27839.0,
            "Velocity": 64,
            "OffVelocity": 0
        },
        {
            "Octave": 3,
            "NoteNumber": 52,
            "Length": 479.0,
            "Time": 27360.0,
            "EndTime": 27839.0,
            "Velocity": 64,
            "OffVelocity": 0
        },
        {
            "Octave": 3,
            "NoteNumber": 59,
            "Length": 479.0,
            "Time": 27360.0,
            "EndTime": 27839.0,
            "Velocity": 64,
            "OffVelocity": 0
        },
        {
            "Octave": 4,
            "NoteNumber": 62,
            "Length": 479.0,
            "Time": 27360.0,
            "EndTime": 27839.0,
            "Velocity": 64,
            "OffVelocity": 0
        },
        {
            "Octave": 2,
            "NoteNumber": 45,
            "Length": 1439.0,
            "Time": 27840.0,
            "EndTime": 29279.0,
            "Velocity": 64,
            "OffVelocity": 0
        },
        {
            "Octave": 3,
            "NoteNumber": 52,
            "Length": 959.0,
            "Time": 28320.0,
            "EndTime": 29279.0,
            "Velocity": 64,
            "OffVelocity": 0
        },
        {
            "Octave": 3,
            "NoteNumber": 57,
            "Length": 959.0,
            "Time": 28320.0,
            "EndTime": 29279.0,
            "Velocity": 64,
            "OffVelocity": 0
        },
        {
            "Octave": 4,
            "NoteNumber": 60,
            "Length": 959.0,
            "Time": 28320.0,
            "EndTime": 29279.0,
            "Velocity": 64,
            "OffVelocity": 0
        },
        {
            "Octave": 3,
            "NoteNumber": 52,
            "Length": 479.0,
            "Time": 28800.0,
            "EndTime": 29279.0,
            "Velocity": 64,
            "OffVelocity": 0
        },
        {
            "Octave": 3,
            "NoteNumber": 57,
            "Length": 479.0,
            "Time": 28800.0,
            "EndTime": 29279.0,
            "Velocity": 64,
            "OffVelocity": 0
        },
        {
            "Octave": 4,
            "NoteNumber": 60,
            "Length": 479.0,
            "Time": 28800.0,
            "EndTime": 29279.0,
            "Velocity": 64,
            "OffVelocity": 0
        },
        {
            "Octave": 2,
            "NoteNumber": 40,
            "Length": 1439.0,
            "Time": 29280.0,
            "EndTime": 30719.0,
            "Velocity": 64,
            "OffVelocity": 0
        },
        {
            "Octave": 5,
            "NoteNumber": 76,
            "Length": 959.0,
            "Time": 29760.0,
            "EndTime": 30719.0,
            "Velocity": 80,
            "OffVelocity": 0
        },
        {
            "Octave": 3,
            "NoteNumber": 52,
            "Length": 959.0,
            "Time": 29760.0,
            "EndTime": 30719.0,
            "Velocity": 64,
            "OffVelocity": 0
        },
        {
            "Octave": 3,
            "NoteNumber": 59,
            "Length": 959.0,
            "Time": 29760.0,
            "EndTime": 30719.0,
            "Velocity": 64,
            "OffVelocity": 0
        },
        {
            "Octave": 4,
            "NoteNumber": 62,
            "Length": 959.0,
            "Time": 29760.0,
            "EndTime": 30719.0,
            "Velocity": 64,
            "OffVelocity": 0
        },
        {
            "Octave": 5,
            "NoteNumber": 83,
            "Length": 767.0,
            "Time": 29952.0,
            "EndTime": 30719.0,
            "Velocity": 80,
            "OffVelocity": 0
        },
        {
            "Octave": 5,
            "NoteNumber": 80,
            "Length": 575.0,
            "Time": 30144.0,
            "EndTime": 30719.0,
            "Velocity": 80,
            "OffVelocity": 0
        },
        {
            "Octave": 3,
            "NoteNumber": 52,
            "Length": 479.0,
            "Time": 30240.0,
            "EndTime": 30719.0,
            "Velocity": 64,
            "OffVelocity": 0
        },
        {
            "Octave": 3,
            "NoteNumber": 56,
            "Length": 479.0,
            "Time": 30240.0,
            "EndTime": 30719.0,
            "Velocity": 64,
            "OffVelocity": 0
        },
        {
            "Octave": 4,
            "NoteNumber": 62,
            "Length": 479.0,
            "Time": 30240.0,
            "EndTime": 30719.0,
            "Velocity": 64,
            "OffVelocity": 0
        },
        {
            "Octave": 2,
            "NoteNumber": 45,
            "Length": 1439.0,
            "Time": 30720.0,
            "EndTime": 32159.0,
            "Velocity": 64,
            "OffVelocity": 0
        },
        {
            "Octave": 3,
            "NoteNumber": 52,
            "Length": 959.0,
            "Time": 31200.0,
            "EndTime": 32159.0,
            "Velocity": 64,
            "OffVelocity": 0
        },
        {
            "Octave": 3,
            "NoteNumber": 57,
            "Length": 959.0,
            "Time": 31200.0,
            "EndTime": 32159.0,
            "Velocity": 64,
            "OffVelocity": 0
        },
        {
            "Octave": 4,
            "NoteNumber": 60,
            "Length": 959.0,
            "Time": 31200.0,
            "EndTime": 32159.0,
            "Velocity": 64,
            "OffVelocity": 0
        },
        {
            "Octave": 3,
            "NoteNumber": 52,
            "Length": 479.0,
            "Time": 31680.0,
            "EndTime": 32159.0,
            "Velocity": 64,
            "OffVelocity": 0
        },
        {
            "Octave": 3,
            "NoteNumber": 57,
            "Length": 479.0,
            "Time": 31680.0,
            "EndTime": 32159.0,
            "Velocity": 64,
            "OffVelocity": 0
        },
        {
            "Octave": 4,
            "NoteNumber": 60,
            "Length": 479.0,
            "Time": 31680.0,
            "EndTime": 32159.0,
            "Velocity": 64,
            "OffVelocity": 0
        },
        {
            "Octave": 2,
            "NoteNumber": 40,
            "Length": 1439.0,
            "Time": 32160.0,
            "EndTime": 33599.0,
            "Velocity": 64,
            "OffVelocity": 0
        },
        {
            "Octave": 3,
            "NoteNumber": 52,
            "Length": 959.0,
            "Time": 32640.0,
            "EndTime": 33599.0,
            "Velocity": 64,
            "OffVelocity": 0
        },
        {
            "Octave": 3,
            "NoteNumber": 59,
            "Length": 959.0,
            "Time": 32640.0,
            "EndTime": 33599.0,
            "Velocity": 64,
            "OffVelocity": 0
        },
        {
            "Octave": 4,
            "NoteNumber": 62,
            "Length": 959.0,
            "Time": 32640.0,
            "EndTime": 33599.0,
            "Velocity": 64,
            "OffVelocity": 0
        },
        {
            "Octave": 3,
            "NoteNumber": 52,
            "Length": 479.0,
            "Time": 33120.0,
            "EndTime": 33599.0,
            "Velocity": 64,
            "OffVelocity": 0
        },
        {
            "Octave": 3,
            "NoteNumber": 59,
            "Length": 479.0,
            "Time": 33120.0,
            "EndTime": 33599.0,
            "Velocity": 64,
            "OffVelocity": 0
        },
        {
            "Octave": 4,
            "NoteNumber": 62,
            "Length": 479.0,
            "Time": 33120.0,
            "EndTime": 33599.0,
            "Velocity": 64,
            "OffVelocity": 0
        },
        {
            "Octave": 2,
            "NoteNumber": 45,
            "Length": 1439.0,
            "Time": 33600.0,
            "EndTime": 35039.0,
            "Velocity": 64,
            "OffVelocity": 0
        },
        {
            "Octave": 3,
            "NoteNumber": 52,
            "Length": 959.0,
            "Time": 34080.0,
            "EndTime": 35039.0,
            "Velocity": 64,
            "OffVelocity": 0
        },
        {
            "Octave": 3,
            "NoteNumber": 57,
            "Length": 959.0,
            "Time": 34080.0,
            "EndTime": 35039.0,
            "Velocity": 64,
            "OffVelocity": 0
        },
        {
            "Octave": 4,
            "NoteNumber": 60,
            "Length": 959.0,
            "Time": 34080.0,
            "EndTime": 35039.0,
            "Velocity": 64,
            "OffVelocity": 0
        },
        {
            "Octave": 3,
            "NoteNumber": 52,
            "Length": 479.0,
            "Time": 34560.0,
            "EndTime": 35039.0,
            "Velocity": 64,
            "OffVelocity": 0
        },
        {
            "Octave": 3,
            "NoteNumber": 57,
            "Length": 479.0,
            "Time": 34560.0,
            "EndTime": 35039.0,
            "Velocity": 64,
            "OffVelocity": 0
        },
        {
            "Octave": 4,
            "NoteNumber": 60,
            "Length": 479.0,
            "Time": 34560.0,
            "EndTime": 35039.0,
            "Velocity": 64,
            "OffVelocity": 0
        },
        {
            "Octave": 2,
            "NoteNumber": 40,
            "Length": 1439.0,
            "Time": 35040.0,
            "EndTime": 36479.0,
            "Velocity": 64,
            "OffVelocity": 0
        },
        {
            "Octave": 3,
            "NoteNumber": 52,
            "Length": 959.0,
            "Time": 35520.0,
            "EndTime": 36479.0,
            "Velocity": 64,
            "OffVelocity": 0
        },
        {
            "Octave": 3,
            "NoteNumber": 59,
            "Length": 959.0,
            "Time": 35520.0,
            "EndTime": 36479.0,
            "Velocity": 64,
            "OffVelocity": 0
        },
        {
            "Octave": 4,
            "NoteNumber": 62,
            "Length": 959.0,
            "Time": 35520.0,
            "EndTime": 36479.0,
            "Velocity": 64,
            "OffVelocity": 0
        },
        {
            "Octave": 3,
            "NoteNumber": 52,
            "Length": 479.0,
            "Time": 36000.0,
            "EndTime": 36479.0,
            "Velocity": 64,
            "OffVelocity": 0
        },
        {
            "Octave": 3,
            "NoteNumber": 56,
            "Length": 479.0,
            "Time": 36000.0,
            "EndTime": 36479.0,
            "Velocity": 64,
            "OffVelocity": 0
        },
        {
            "Octave": 4,
            "NoteNumber": 62,
            "Length": 479.0,
            "Time": 36000.0,
            "EndTime": 36479.0,
            "Velocity": 64,
            "OffVelocity": 0
        },
        {
            "Octave": 2,
            "NoteNumber": 45,
            "Length": 1439.0,
            "Time": 36480.0,
            "EndTime": 37919.0,
            "Velocity": 64,
            "OffVelocity": 0
        },
        {
            "Octave": 3,
            "NoteNumber": 52,
            "Length": 959.0,
            "Time": 36960.0,
            "EndTime": 37919.0,
            "Velocity": 64,
            "OffVelocity": 0
        },
        {
            "Octave": 3,
            "NoteNumber": 57,
            "Length": 959.0,
            "Time": 36960.0,
            "EndTime": 37919.0,
            "Velocity": 64,
            "OffVelocity": 0
        },
        {
            "Octave": 4,
            "NoteNumber": 60,
            "Length": 959.0,
            "Time": 36960.0,
            "EndTime": 37919.0,
            "Velocity": 64,
            "OffVelocity": 0
        },
        {
            "Octave": 3,
            "NoteNumber": 52,
            "Length": 479.0,
            "Time": 37440.0,
            "EndTime": 37919.0,
            "Velocity": 64,
            "OffVelocity": 0
        },
        {
            "Octave": 3,
            "NoteNumber": 57,
            "Length": 479.0,
            "Time": 37440.0,
            "EndTime": 37919.0,
            "Velocity": 64,
            "OffVelocity": 0
        },
        {
            "Octave": 4,
            "NoteNumber": 60,
            "Length": 479.0,
            "Time": 37440.0,
            "EndTime": 37919.0,
            "Velocity": 64,
            "OffVelocity": 0
        },
        {
            "Octave": 2,
            "NoteNumber": 40,
            "Length": 1439.0,
            "Time": 37920.0,
            "EndTime": 39359.0,
            "Velocity": 64,
            "OffVelocity": 0
        },
        {
            "Octave": 3,
            "NoteNumber": 52,
            "Length": 959.0,
            "Time": 38400.0,
            "EndTime": 39359.0,
            "Velocity": 64,
            "OffVelocity": 0
        },
        {
            "Octave": 3,
            "NoteNumber": 59,
            "Length": 959.0,
            "Time": 38400.0,
            "EndTime": 39359.0,
            "Velocity": 64,
            "OffVelocity": 0
        },
        {
            "Octave": 4,
            "NoteNumber": 62,
            "Length": 959.0,
            "Time": 38400.0,
            "EndTime": 39359.0,
            "Velocity": 64,
            "OffVelocity": 0
        },
        {
            "Octave": 3,
            "NoteNumber": 52,
            "Length": 479.0,
            "Time": 38880.0,
            "EndTime": 39359.0,
            "Velocity": 64,
            "OffVelocity": 0
        },
        {
            "Octave": 3,
            "NoteNumber": 59,
            "Length": 479.0,
            "Time": 38880.0,
            "EndTime": 39359.0,
            "Velocity": 64,
            "OffVelocity": 0
        },
        {
            "Octave": 4,
            "NoteNumber": 62,
            "Length": 479.0,
            "Time": 38880.0,
            "EndTime": 39359.0,
            "Velocity": 64,
            "OffVelocity": 0
        },
        {
            "Octave": 2,
            "NoteNumber": 45,
            "Length": 1439.0,
            "Time": 39360.0,
            "EndTime": 40799.0,
            "Velocity": 64,
            "OffVelocity": 0
        },
        {
            "Octave": 3,
            "NoteNumber": 52,
            "Length": 959.0,
            "Time": 39840.0,
            "EndTime": 40799.0,
            "Velocity": 64,
            "OffVelocity": 0
        },
        {
            "Octave": 3,
            "NoteNumber": 57,
            "Length": 959.0,
            "Time": 39840.0,
            "EndTime": 40799.0,
            "Velocity": 64,
            "OffVelocity": 0
        },
        {
            "Octave": 4,
            "NoteNumber": 60,
            "Length": 959.0,
            "Time": 39840.0,
            "EndTime": 40799.0,
            "Velocity": 64,
            "OffVelocity": 0
        },
        {
            "Octave": 3,
            "NoteNumber": 52,
            "Length": 479.0,
            "Time": 40320.0,
            "EndTime": 40799.0,
            "Velocity": 64,
            "OffVelocity": 0
        },
        {
            "Octave": 3,
            "NoteNumber": 57,
            "Length": 479.0,
            "Time": 40320.0,
            "EndTime": 40799.0,
            "Velocity": 64,
            "OffVelocity": 0
        },
        {
            "Octave": 4,
            "NoteNumber": 60,
            "Length": 479.0,
            "Time": 40320.0,
            "EndTime": 40799.0,
            "Velocity": 64,
            "OffVelocity": 0
        },
        {
            "Octave": 2,
            "NoteNumber": 40,
            "Length": 1439.0,
            "Time": 40800.0,
            "EndTime": 42239.0,
            "Velocity": 64,
            "OffVelocity": 0
        },
        {
            "Octave": 5,
            "NoteNumber": 76,
            "Length": 959.0,
            "Time": 41280.0,
            "EndTime": 42239.0,
            "Velocity": 80,
            "OffVelocity": 0
        },
        {
            "Octave": 3,
            "NoteNumber": 52,
            "Length": 959.0,
            "Time": 41280.0,
            "EndTime": 42239.0,
            "Velocity": 64,
            "OffVelocity": 0
        },
        {
            "Octave": 3,
            "NoteNumber": 59,
            "Length": 959.0,
            "Time": 41280.0,
            "EndTime": 42239.0,
            "Velocity": 64,
            "OffVelocity": 0
        },
        {
            "Octave": 4,
            "NoteNumber": 62,
            "Length": 959.0,
            "Time": 41280.0,
            "EndTime": 42239.0,
            "Velocity": 64,
            "OffVelocity": 0
        },
        {
            "Octave": 5,
            "NoteNumber": 83,
            "Length": 767.0,
            "Time": 41472.0,
            "EndTime": 42239.0,
            "Velocity": 80,
            "OffVelocity": 0
        },
        {
            "Octave": 5,
            "NoteNumber": 80,
            "Length": 575.0,
            "Time": 41664.0,
            "EndTime": 42239.0,
            "Velocity": 80,
            "OffVelocity": 0
        },
        {
            "Octave": 3,
            "NoteNumber": 52,
            "Length": 479.0,
            "Time": 41760.0,
            "EndTime": 42239.0,
            "Velocity": 64,
            "OffVelocity": 0
        },
        {
            "Octave": 3,
            "NoteNumber": 56,
            "Length": 479.0,
            "Time": 41760.0,
            "EndTime": 42239.0,
            "Velocity": 64,
            "OffVelocity": 0
        },
        {
            "Octave": 4,
            "NoteNumber": 62,
            "Length": 479.0,
            "Time": 41760.0,
            "EndTime": 42239.0,
            "Velocity": 64,
            "OffVelocity": 0
        },
        {
            "Octave": 2,
            "NoteNumber": 45,
            "Length": 1439.0,
            "Time": 42240.0,
            "EndTime": 43679.0,
            "Velocity": 64,
            "OffVelocity": 0
        },
        {
            "Octave": 3,
            "NoteNumber": 52,
            "Length": 959.0,
            "Time": 42720.0,
            "EndTime": 43679.0,
            "Velocity": 64,
            "OffVelocity": 0
        },
        {
            "Octave": 3,
            "NoteNumber": 57,
            "Length": 959.0,
            "Time": 42720.0,
            "EndTime": 43679.0,
            "Velocity": 64,
            "OffVelocity": 0
        },
        {
            "Octave": 4,
            "NoteNumber": 60,
            "Length": 959.0,
            "Time": 42720.0,
            "EndTime": 43679.0,
            "Velocity": 64,
            "OffVelocity": 0
        },
        {
            "Octave": 3,
            "NoteNumber": 52,
            "Length": 479.0,
            "Time": 43200.0,
            "EndTime": 43679.0,
            "Velocity": 64,
            "OffVelocity": 0
        },
        {
            "Octave": 3,
            "NoteNumber": 57,
            "Length": 479.0,
            "Time": 43200.0,
            "EndTime": 43679.0,
            "Velocity": 64,
            "OffVelocity": 0
        },
        {
            "Octave": 4,
            "NoteNumber": 60,
            "Length": 479.0,
            "Time": 43200.0,
            "EndTime": 43679.0,
            "Velocity": 64,
            "OffVelocity": 0
        },
        {
            "Octave": 2,
            "NoteNumber": 40,
            "Length": 1439.0,
            "Time": 43680.0,
            "EndTime": 45119.0,
            "Velocity": 64,
            "OffVelocity": 0
        },
        {
            "Octave": 3,
            "NoteNumber": 52,
            "Length": 959.0,
            "Time": 44160.0,
            "EndTime": 45119.0,
            "Velocity": 64,
            "OffVelocity": 0
        },
        {
            "Octave": 3,
            "NoteNumber": 59,
            "Length": 959.0,
            "Time": 44160.0,
            "EndTime": 45119.0,
            "Velocity": 64,
            "OffVelocity": 0
        },
        {
            "Octave": 4,
            "NoteNumber": 62,
            "Length": 959.0,
            "Time": 44160.0,
            "EndTime": 45119.0,
            "Velocity": 64,
            "OffVelocity": 0
        },
        {
            "Octave": 3,
            "NoteNumber": 52,
            "Length": 479.0,
            "Time": 44640.0,
            "EndTime": 45119.0,
            "Velocity": 64,
            "OffVelocity": 0
        },
        {
            "Octave": 3,
            "NoteNumber": 59,
            "Length": 479.0,
            "Time": 44640.0,
            "EndTime": 45119.0,
            "Velocity": 64,
            "OffVelocity": 0
        },
        {
            "Octave": 4,
            "NoteNumber": 62,
            "Length": 479.0,
            "Time": 44640.0,
            "EndTime": 45119.0,
            "Velocity": 64,
            "OffVelocity": 0
        },
        {
            "Octave": 2,
            "NoteNumber": 45,
            "Length": 959.0,
            "Time": 45120.0,
            "EndTime": 46079.0,
            "Velocity": 64,
            "OffVelocity": 0
        },
        {
            "Octave": 3,
            "NoteNumber": 52,
            "Length": 479.0,
            "Time": 45600.0,
            "EndTime": 46079.0,
            "Velocity": 64,
            "OffVelocity": 0
        },
        {
            "Octave": 3,
            "NoteNumber": 57,
            "Length": 479.0,
            "Time": 45600.0,
            "EndTime": 46079.0,
            "Velocity": 64,
            "OffVelocity": 0
        },
        {
            "Octave": 4,
            "NoteNumber": 60,
            "Length": 479.0,
            "Time": 45600.0,
            "EndTime": 46079.0,
            "Velocity": 64,
            "OffVelocity": 0
        },
        {
            "Octave": 3,
            "NoteNumber": 52,
            "Length": 479.0,
            "Time": 46080.0,
            "EndTime": 46559.0,
            "Velocity": 64,
            "OffVelocity": 0
        },
        {
            "Octave": 3,
            "NoteNumber": 57,
            "Length": 479.0,
            "Time": 46080.0,
            "EndTime": 46559.0,
            "Velocity": 64,
            "OffVelocity": 0
        },
        {
            "Octave": 4,
            "NoteNumber": 60,
            "Length": 479.0,
            "Time": 46080.0,
            "EndTime": 46559.0,
            "Velocity": 64,
            "OffVelocity": 0
        },
        {
            "Octave": 1,
            "NoteNumber": 33,
            "Length": 1439.0,
            "Time": 46560.0,
            "EndTime": 47999.0,
            "Velocity": 64,
            "OffVelocity": 0
        },
        {
            "Octave": 3,
            "NoteNumber": 57,
            "Length": 959.0,
            "Time": 47040.0,
            "EndTime": 47999.0,
            "Velocity": 64,
            "OffVelocity": 0
        },
        {
            "Octave": 4,
            "NoteNumber": 60,
            "Length": 959.0,
            "Time": 47040.0,
            "EndTime": 47999.0,
            "Velocity": 64,
            "OffVelocity": 0
        },
        {
            "Octave": 4,
            "NoteNumber": 64,
            "Length": 959.0,
            "Time": 47040.0,
            "EndTime": 47999.0,
            "Velocity": 64,
            "OffVelocity": 0
        },
        {
            "Octave": 3,
            "NoteNumber": 57,
            "Length": 479.0,
            "Time": 47520.0,
            "EndTime": 47999.0,
            "Velocity": 64,
            "OffVelocity": 0
        },
        {
            "Octave": 4,
            "NoteNumber": 60,
            "Length": 479.0,
            "Time": 47520.0,
            "EndTime": 47999.0,
            "Velocity": 64,
            "OffVelocity": 0
        },
        {
            "Octave": 4,
            "NoteNumber": 64,
            "Length": 479.0,
            "Time": 47520.0,
            "EndTime": 47999.0,
            "Velocity": 64,
            "OffVelocity": 0
        },
        {
            "Octave": 2,
            "NoteNumber": 38,
            "Length": 1439.0,
            "Time": 48000.0,
            "EndTime": 49439.0,
            "Velocity": 64,
            "OffVelocity": 0
        },
        {
            "Octave": 3,
            "NoteNumber": 57,
            "Length": 959.0,
            "Time": 48480.0,
            "EndTime": 49439.0,
            "Velocity": 64,
            "OffVelocity": 0
        },
        {
            "Octave": 4,
            "NoteNumber": 62,
            "Length": 959.0,
            "Time": 48480.0,
            "EndTime": 49439.0,
            "Velocity": 64,
            "OffVelocity": 0
        },
        {
            "Octave": 4,
            "NoteNumber": 65,
            "Length": 959.0,
            "Time": 48480.0,
            "EndTime": 49439.0,
            "Velocity": 64,
            "OffVelocity": 0
        },
        {
            "Octave": 3,
            "NoteNumber": 57,
            "Length": 479.0,
            "Time": 48960.0,
            "EndTime": 49439.0,
            "Velocity": 64,
            "OffVelocity": 0
        },
        {
            "Octave": 4,
            "NoteNumber": 62,
            "Length": 479.0,
            "Time": 48960.0,
            "EndTime": 49439.0,
            "Velocity": 64,
            "OffVelocity": 0
        },
        {
            "Octave": 4,
            "NoteNumber": 65,
            "Length": 479.0,
            "Time": 48960.0,
            "EndTime": 49439.0,
            "Velocity": 64,
            "OffVelocity": 0
        },
        {
            "Octave": 2,
            "NoteNumber": 43,
            "Length": 1439.0,
            "Time": 49440.0,
            "EndTime": 50879.0,
            "Velocity": 64,
            "OffVelocity": 0
        },
        {
            "Octave": 3,
            "NoteNumber": 55,
            "Length": 959.0,
            "Time": 49920.0,
            "EndTime": 50879.0,
            "Velocity": 64,
            "OffVelocity": 0
        },
        {
            "Octave": 3,
            "NoteNumber": 59,
            "Length": 959.0,
            "Time": 49920.0,
            "EndTime": 50879.0,
            "Velocity": 64,
            "OffVelocity": 0
        },
        {
            "Octave": 4,
            "NoteNumber": 65,
            "Length": 959.0,
            "Time": 49920.0,
            "EndTime": 50879.0,
            "Velocity": 64,
            "OffVelocity": 0
        },
        {
            "Octave": 3,
            "NoteNumber": 55,
            "Length": 479.0,
            "Time": 50400.0,
            "EndTime": 50879.0,
            "Velocity": 64,
            "OffVelocity": 0
        },
        {
            "Octave": 3,
            "NoteNumber": 59,
            "Length": 479.0,
            "Time": 50400.0,
            "EndTime": 50879.0,
            "Velocity": 64,
            "OffVelocity": 0
        },
        {
            "Octave": 4,
            "NoteNumber": 65,
            "Length": 479.0,
            "Time": 50400.0,
            "EndTime": 50879.0,
            "Velocity": 64,
            "OffVelocity": 0
        },
        {
            "Octave": 3,
            "NoteNumber": 48,
            "Length": 1439.0,
            "Time": 50880.0,
            "EndTime": 52319.0,
            "Velocity": 64,
            "OffVelocity": 0
        },
        {
            "Octave": 3,
            "NoteNumber": 55,
            "Length": 959.0,
            "Time": 51360.0,
            "EndTime": 52319.0,
            "Velocity": 64,
            "OffVelocity": 0
        },
        {
            "Octave": 4,
            "NoteNumber": 60,
            "Length": 959.0,
            "Time": 51360.0,
            "EndTime": 52319.0,
            "Velocity": 64,
            "OffVelocity": 0
        },
        {
            "Octave": 4,
            "NoteNumber": 64,
            "Length": 959.0,
            "Time": 51360.0,
            "EndTime": 52319.0,
            "Velocity": 64,
            "OffVelocity": 0
        },
        {
            "Octave": 3,
            "NoteNumber": 55,
            "Length": 479.0,
            "Time": 51840.0,
            "EndTime": 52319.0,
            "Velocity": 64,
            "OffVelocity": 0
        },
        {
            "Octave": 4,
            "NoteNumber": 60,
            "Length": 479.0,
            "Time": 51840.0,
            "EndTime": 52319.0,
            "Velocity": 64,
            "OffVelocity": 0
        },
        {
            "Octave": 4,
            "NoteNumber": 64,
            "Length": 479.0,
            "Time": 51840.0,
            "EndTime": 52319.0,
            "Velocity": 64,
            "OffVelocity": 0
        },
        {
            "Octave": 2,
            "NoteNumber": 45,
            "Length": 1439.0,
            "Time": 52320.0,
            "EndTime": 53759.0,
            "Velocity": 64,
            "OffVelocity": 0
        },
        {
            "Octave": 3,
            "NoteNumber": 57,
            "Length": 959.0,
            "Time": 52800.0,
            "EndTime": 53759.0,
            "Velocity": 64,
            "OffVelocity": 0
        },
        {
            "Octave": 4,
            "NoteNumber": 60,
            "Length": 959.0,
            "Time": 52800.0,
            "EndTime": 53759.0,
            "Velocity": 64,
            "OffVelocity": 0
        },
        {
            "Octave": 4,
            "NoteNumber": 64,
            "Length": 959.0,
            "Time": 52800.0,
            "EndTime": 53759.0,
            "Velocity": 64,
            "OffVelocity": 0
        },
        {
            "Octave": 3,
            "NoteNumber": 57,
            "Length": 479.0,
            "Time": 53280.0,
            "EndTime": 53759.0,
            "Velocity": 64,
            "OffVelocity": 0
        },
        {
            "Octave": 4,
            "NoteNumber": 60,
            "Length": 479.0,
            "Time": 53280.0,
            "EndTime": 53759.0,
            "Velocity": 64,
            "OffVelocity": 0
        },
        {
            "Octave": 4,
            "NoteNumber": 64,
            "Length": 479.0,
            "Time": 53280.0,
            "EndTime": 53759.0,
            "Velocity": 64,
            "OffVelocity": 0
        },
        {
            "Octave": 2,
            "NoteNumber": 38,
            "Length": 1439.0,
            "Time": 53760.0,
            "EndTime": 55199.0,
            "Velocity": 64,
            "OffVelocity": 0
        },
        {
            "Octave": 3,
            "NoteNumber": 57,
            "Length": 959.0,
            "Time": 54240.0,
            "EndTime": 55199.0,
            "Velocity": 64,
            "OffVelocity": 0
        },
        {
            "Octave": 4,
            "NoteNumber": 62,
            "Length": 959.0,
            "Time": 54240.0,
            "EndTime": 55199.0,
            "Velocity": 64,
            "OffVelocity": 0
        },
        {
            "Octave": 4,
            "NoteNumber": 65,
            "Length": 959.0,
            "Time": 54240.0,
            "EndTime": 55199.0,
            "Velocity": 64,
            "OffVelocity": 0
        },
        {
            "Octave": 3,
            "NoteNumber": 57,
            "Length": 479.0,
            "Time": 54720.0,
            "EndTime": 55199.0,
            "Velocity": 64,
            "OffVelocity": 0
        },
        {
            "Octave": 4,
            "NoteNumber": 62,
            "Length": 479.0,
            "Time": 54720.0,
            "EndTime": 55199.0,
            "Velocity": 64,
            "OffVelocity": 0
        },
        {
            "Octave": 4,
            "NoteNumber": 65,
            "Length": 479.0,
            "Time": 54720.0,
            "EndTime": 55199.0,
            "Velocity": 64,
            "OffVelocity": 0
        },
        {
            "Octave": 1,
            "NoteNumber": 35,
            "Length": 1439.0,
            "Time": 55200.0,
            "EndTime": 56639.0,
            "Velocity": 64,
            "OffVelocity": 0
        },
        {
            "Octave": 3,
            "NoteNumber": 57,
            "Length": 959.0,
            "Time": 55680.0,
            "EndTime": 56639.0,
            "Velocity": 64,
            "OffVelocity": 0
        },
        {
            "Octave": 3,
            "NoteNumber": 59,
            "Length": 959.0,
            "Time": 55680.0,
            "EndTime": 56639.0,
            "Velocity": 64,
            "OffVelocity": 0
        },
        {
            "Octave": 4,
            "NoteNumber": 63,
            "Length": 959.0,
            "Time": 55680.0,
            "EndTime": 56639.0,
            "Velocity": 64,
            "OffVelocity": 0
        },
        {
            "Octave": 3,
            "NoteNumber": 57,
            "Length": 479.0,
            "Time": 56160.0,
            "EndTime": 56639.0,
            "Velocity": 64,
            "OffVelocity": 0
        },
        {
            "Octave": 3,
            "NoteNumber": 59,
            "Length": 479.0,
            "Time": 56160.0,
            "EndTime": 56639.0,
            "Velocity": 64,
            "OffVelocity": 0
        },
        {
            "Octave": 4,
            "NoteNumber": 63,
            "Length": 479.0,
            "Time": 56160.0,
            "EndTime": 56639.0,
            "Velocity": 64,
            "OffVelocity": 0
        },
        {
            "Octave": 2,
            "NoteNumber": 40,
            "Length": 959.0,
            "Time": 56640.0,
            "EndTime": 57599.0,
            "Velocity": 64,
            "OffVelocity": 0
        },
        {
            "Octave": 3,
            "NoteNumber": 52,
            "Length": 479.0,
            "Time": 57120.0,
            "EndTime": 57599.0,
            "Velocity": 64,
            "OffVelocity": 0
        },
        {
            "Octave": 3,
            "NoteNumber": 59,
            "Length": 479.0,
            "Time": 57120.0,
            "EndTime": 57599.0,
            "Velocity": 64,
            "OffVelocity": 0
        },
        {
            "Octave": 4,
            "NoteNumber": 62,
            "Length": 479.0,
            "Time": 57120.0,
            "EndTime": 57599.0,
            "Velocity": 64,
            "OffVelocity": 0
        },
        {
            "Octave": 2,
            "NoteNumber": 40,
            "Length": 1439.0,
            "Time": 58080.0,
            "EndTime": 59519.0,
            "Velocity": 64,
            "OffVelocity": 0
        },
        {
            "Octave": 3,
            "NoteNumber": 52,
            "Length": 959.0,
            "Time": 58560.0,
            "EndTime": 59519.0,
            "Velocity": 64,
            "OffVelocity": 0
        },
        {
            "Octave": 3,
            "NoteNumber": 56,
            "Length": 959.0,
            "Time": 58560.0,
            "EndTime": 59519.0,
            "Velocity": 64,
            "OffVelocity": 0
        },
        {
            "Octave": 4,
            "NoteNumber": 62,
            "Length": 959.0,
            "Time": 58560.0,
            "EndTime": 59519.0,
            "Velocity": 64,
            "OffVelocity": 0
        },
        {
            "Octave": 3,
            "NoteNumber": 52,
            "Length": 479.0,
            "Time": 59040.0,
            "EndTime": 59519.0,
            "Velocity": 64,
            "OffVelocity": 0
        },
        {
            "Octave": 3,
            "NoteNumber": 56,
            "Length": 479.0,
            "Time": 59040.0,
            "EndTime": 59519.0,
            "Velocity": 64,
            "OffVelocity": 0
        },
        {
            "Octave": 4,
            "NoteNumber": 62,
            "Length": 479.0,
            "Time": 59040.0,
            "EndTime": 59519.0,
            "Velocity": 64,
            "OffVelocity": 0
        },
        {
            "Octave": 2,
            "NoteNumber": 45,
            "Length": 1439.0,
            "Time": 59520.0,
            "EndTime": 60959.0,
            "Velocity": 64,
            "OffVelocity": 0
        },
        {
            "Octave": 3,
            "NoteNumber": 52,
            "Length": 959.0,
            "Time": 60000.0,
            "EndTime": 60959.0,
            "Velocity": 64,
            "OffVelocity": 0
        },
        {
            "Octave": 3,
            "NoteNumber": 57,
            "Length": 959.0,
            "Time": 60000.0,
            "EndTime": 60959.0,
            "Velocity": 64,
            "OffVelocity": 0
        },
        {
            "Octave": 4,
            "NoteNumber": 61,
            "Length": 959.0,
            "Time": 60000.0,
            "EndTime": 60959.0,
            "Velocity": 64,
            "OffVelocity": 0
        },
        {
            "Octave": 3,
            "NoteNumber": 52,
            "Length": 479.0,
            "Time": 60480.0,
            "EndTime": 60959.0,
            "Velocity": 64,
            "OffVelocity": 0
        },
        {
            "Octave": 3,
            "NoteNumber": 57,
            "Length": 479.0,
            "Time": 60480.0,
            "EndTime": 60959.0,
            "Velocity": 64,
            "OffVelocity": 0
        },
        {
            "Octave": 4,
            "NoteNumber": 61,
            "Length": 479.0,
            "Time": 60480.0,
            "EndTime": 60959.0,
            "Velocity": 64,
            "OffVelocity": 0
        },
        {
            "Octave": 2,
            "NoteNumber": 40,
            "Length": 1439.0,
            "Time": 60960.0,
            "EndTime": 62399.0,
            "Velocity": 64,
            "OffVelocity": 0
        },
        {
            "Octave": 3,
            "NoteNumber": 52,
            "Length": 959.0,
            "Time": 61440.0,
            "EndTime": 62399.0,
            "Velocity": 64,
            "OffVelocity": 0
        },
        {
            "Octave": 3,
            "NoteNumber": 56,
            "Length": 959.0,
            "Time": 61440.0,
            "EndTime": 62399.0,
            "Velocity": 64,
            "OffVelocity": 0
        },
        {
            "Octave": 4,
            "NoteNumber": 62,
            "Length": 959.0,
            "Time": 61440.0,
            "EndTime": 62399.0,
            "Velocity": 64,
            "OffVelocity": 0
        },
        {
            "Octave": 3,
            "NoteNumber": 52,
            "Length": 479.0,
            "Time": 61920.0,
            "EndTime": 62399.0,
            "Velocity": 64,
            "OffVelocity": 0
        },
        {
            "Octave": 3,
            "NoteNumber": 56,
            "Length": 479.0,
            "Time": 61920.0,
            "EndTime": 62399.0,
            "Velocity": 64,
            "OffVelocity": 0
        },
        {
            "Octave": 4,
            "NoteNumber": 62,
            "Length": 479.0,
            "Time": 61920.0,
            "EndTime": 62399.0,
            "Velocity": 64,
            "OffVelocity": 0
        },
        {
            "Octave": 2,
            "NoteNumber": 45,
            "Length": 1439.0,
            "Time": 62400.0,
            "EndTime": 63839.0,
            "Velocity": 64,
            "OffVelocity": 0
        },
        {
            "Octave": 3,
            "NoteNumber": 52,
            "Length": 959.0,
            "Time": 62880.0,
            "EndTime": 63839.0,
            "Velocity": 64,
            "OffVelocity": 0
        },
        {
            "Octave": 3,
            "NoteNumber": 57,
            "Length": 959.0,
            "Time": 62880.0,
            "EndTime": 63839.0,
            "Velocity": 64,
            "OffVelocity": 0
        },
        {
            "Octave": 4,
            "NoteNumber": 61,
            "Length": 959.0,
            "Time": 62880.0,
            "EndTime": 63839.0,
            "Velocity": 64,
            "OffVelocity": 0
        },
        {
            "Octave": 3,
            "NoteNumber": 52,
            "Length": 479.0,
            "Time": 63360.0,
            "EndTime": 63839.0,
            "Velocity": 64,
            "OffVelocity": 0
        },
        {
            "Octave": 3,
            "NoteNumber": 57,
            "Length": 479.0,
            "Time": 63360.0,
            "EndTime": 63839.0,
            "Velocity": 64,
            "OffVelocity": 0
        },
        {
            "Octave": 4,
            "NoteNumber": 61,
            "Length": 479.0,
            "Time": 63360.0,
            "EndTime": 63839.0,
            "Velocity": 64,
            "OffVelocity": 0
        },
        {
            "Octave": 2,
            "NoteNumber": 40,
            "Length": 1439.0,
            "Time": 63840.0,
            "EndTime": 65279.0,
            "Velocity": 64,
            "OffVelocity": 0
        },
        {
            "Octave": 3,
            "NoteNumber": 52,
            "Length": 959.0,
            "Time": 64320.0,
            "EndTime": 65279.0,
            "Velocity": 64,
            "OffVelocity": 0
        },
        {
            "Octave": 3,
            "NoteNumber": 56,
            "Length": 959.0,
            "Time": 64320.0,
            "EndTime": 65279.0,
            "Velocity": 64,
            "OffVelocity": 0
        },
        {
            "Octave": 4,
            "NoteNumber": 62,
            "Length": 959.0,
            "Time": 64320.0,
            "EndTime": 65279.0,
            "Velocity": 64,
            "OffVelocity": 0
        },
        {
            "Octave": 3,
            "NoteNumber": 52,
            "Length": 479.0,
            "Time": 64800.0,
            "EndTime": 65279.0,
            "Velocity": 64,
            "OffVelocity": 0
        },
        {
            "Octave": 3,
            "NoteNumber": 56,
            "Length": 479.0,
            "Time": 64800.0,
            "EndTime": 65279.0,
            "Velocity": 64,
            "OffVelocity": 0
        },
        {
            "Octave": 4,
            "NoteNumber": 62,
            "Length": 479.0,
            "Time": 64800.0,
            "EndTime": 65279.0,
            "Velocity": 64,
            "OffVelocity": 0
        },
        {
            "Octave": 2,
            "NoteNumber": 45,
            "Length": 1439.0,
            "Time": 65280.0,
            "EndTime": 66719.0,
            "Velocity": 64,
            "OffVelocity": 0
        },
        {
            "Octave": 3,
            "NoteNumber": 52,
            "Length": 959.0,
            "Time": 65760.0,
            "EndTime": 66719.0,
            "Velocity": 64,
            "OffVelocity": 0
        },
        {
            "Octave": 3,
            "NoteNumber": 57,
            "Length": 959.0,
            "Time": 65760.0,
            "EndTime": 66719.0,
            "Velocity": 64,
            "OffVelocity": 0
        },
        {
            "Octave": 4,
            "NoteNumber": 61,
            "Length": 959.0,
            "Time": 65760.0,
            "EndTime": 66719.0,
            "Velocity": 64,
            "OffVelocity": 0
        },
        {
            "Octave": 3,
            "NoteNumber": 52,
            "Length": 479.0,
            "Time": 66240.0,
            "EndTime": 66719.0,
            "Velocity": 64,
            "OffVelocity": 0
        },
        {
            "Octave": 3,
            "NoteNumber": 57,
            "Length": 479.0,
            "Time": 66240.0,
            "EndTime": 66719.0,
            "Velocity": 64,
            "OffVelocity": 0
        },
        {
            "Octave": 4,
            "NoteNumber": 61,
            "Length": 479.0,
            "Time": 66240.0,
            "EndTime": 66719.0,
            "Velocity": 64,
            "OffVelocity": 0
        },
        {
            "Octave": 2,
            "NoteNumber": 40,
            "Length": 1439.0,
            "Time": 66720.0,
            "EndTime": 68159.0,
            "Velocity": 64,
            "OffVelocity": 0
        },
        {
            "Octave": 3,
            "NoteNumber": 52,
            "Length": 959.0,
            "Time": 67200.0,
            "EndTime": 68159.0,
            "Velocity": 64,
            "OffVelocity": 0
        },
        {
            "Octave": 3,
            "NoteNumber": 56,
            "Length": 959.0,
            "Time": 67200.0,
            "EndTime": 68159.0,
            "Velocity": 64,
            "OffVelocity": 0
        },
        {
            "Octave": 4,
            "NoteNumber": 62,
            "Length": 959.0,
            "Time": 67200.0,
            "EndTime": 68159.0,
            "Velocity": 64,
            "OffVelocity": 0
        },
        {
            "Octave": 3,
            "NoteNumber": 52,
            "Length": 479.0,
            "Time": 67680.0,
            "EndTime": 68159.0,
            "Velocity": 64,
            "OffVelocity": 0
        },
        {
            "Octave": 3,
            "NoteNumber": 56,
            "Length": 479.0,
            "Time": 67680.0,
            "EndTime": 68159.0,
            "Velocity": 64,
            "OffVelocity": 0
        },
        {
            "Octave": 4,
            "NoteNumber": 62,
            "Length": 479.0,
            "Time": 67680.0,
            "EndTime": 68159.0,
            "Velocity": 64,
            "OffVelocity": 0
        },
        {
            "Octave": 2,
            "NoteNumber": 45,
            "Length": 959.0,
            "Time": 68160.0,
            "EndTime": 69119.0,
            "Velocity": 64,
            "OffVelocity": 0
        },
        {
            "Octave": 3,
            "NoteNumber": 52,
            "Length": 479.0,
            "Time": 68640.0,
            "EndTime": 69119.0,
            "Velocity": 64,
            "OffVelocity": 0
        },
        {
            "Octave": 4,
            "NoteNumber": 61,
            "Length": 479.0,
            "Time": 68640.0,
            "EndTime": 69119.0,
            "Velocity": 64,
            "OffVelocity": 0
        },
        {
            "Octave": 1,
            "NoteNumber": 33,
            "Length": 1439.0,
            "Time": 69600.0,
            "EndTime": 71039.0,
            "Velocity": 64,
            "OffVelocity": 0
        },
        {
            "Octave": 3,
            "NoteNumber": 57,
            "Length": 959.0,
            "Time": 70080.0,
            "EndTime": 71039.0,
            "Velocity": 64,
            "OffVelocity": 0
        },
        {
            "Octave": 4,
            "NoteNumber": 60,
            "Length": 959.0,
            "Time": 70080.0,
            "EndTime": 71039.0,
            "Velocity": 64,
            "OffVelocity": 0
        },
        {
            "Octave": 4,
            "NoteNumber": 64,
            "Length": 959.0,
            "Time": 70080.0,
            "EndTime": 71039.0,
            "Velocity": 64,
            "OffVelocity": 0
        },
        {
            "Octave": 3,
            "NoteNumber": 57,
            "Length": 479.0,
            "Time": 70560.0,
            "EndTime": 71039.0,
            "Velocity": 64,
            "OffVelocity": 0
        },
        {
            "Octave": 4,
            "NoteNumber": 60,
            "Length": 479.0,
            "Time": 70560.0,
            "EndTime": 71039.0,
            "Velocity": 64,
            "OffVelocity": 0
        },
        {
            "Octave": 4,
            "NoteNumber": 64,
            "Length": 479.0,
            "Time": 70560.0,
            "EndTime": 71039.0,
            "Velocity": 64,
            "OffVelocity": 0
        },
        {
            "Octave": 2,
            "NoteNumber": 38,
            "Length": 1439.0,
            "Time": 71040.0,
            "EndTime": 72479.0,
            "Velocity": 64,
            "OffVelocity": 0
        },
        {
            "Octave": 3,
            "NoteNumber": 57,
            "Length": 959.0,
            "Time": 71520.0,
            "EndTime": 72479.0,
            "Velocity": 64,
            "OffVelocity": 0
        },
        {
            "Octave": 4,
            "NoteNumber": 62,
            "Length": 959.0,
            "Time": 71520.0,
            "EndTime": 72479.0,
            "Velocity": 64,
            "OffVelocity": 0
        },
        {
            "Octave": 4,
            "NoteNumber": 65,
            "Length": 959.0,
            "Time": 71520.0,
            "EndTime": 72479.0,
            "Velocity": 64,
            "OffVelocity": 0
        },
        {
            "Octave": 3,
            "NoteNumber": 57,
            "Length": 479.0,
            "Time": 72000.0,
            "EndTime": 72479.0,
            "Velocity": 64,
            "OffVelocity": 0
        },
        {
            "Octave": 4,
            "NoteNumber": 62,
            "Length": 479.0,
            "Time": 72000.0,
            "EndTime": 72479.0,
            "Velocity": 64,
            "OffVelocity": 0
        },
        {
            "Octave": 4,
            "NoteNumber": 65,
            "Length": 479.0,
            "Time": 72000.0,
            "EndTime": 72479.0,
            "Velocity": 64,
            "OffVelocity": 0
        },
        {
            "Octave": 2,
            "NoteNumber": 43,
            "Length": 1439.0,
            "Time": 72480.0,
            "EndTime": 73919.0,
            "Velocity": 64,
            "OffVelocity": 0
        },
        {
            "Octave": 3,
            "NoteNumber": 55,
            "Length": 959.0,
            "Time": 72960.0,
            "EndTime": 73919.0,
            "Velocity": 64,
            "OffVelocity": 0
        },
        {
            "Octave": 3,
            "NoteNumber": 59,
            "Length": 959.0,
            "Time": 72960.0,
            "EndTime": 73919.0,
            "Velocity": 64,
            "OffVelocity": 0
        },
        {
            "Octave": 4,
            "NoteNumber": 65,
            "Length": 959.0,
            "Time": 72960.0,
            "EndTime": 73919.0,
            "Velocity": 64,
            "OffVelocity": 0
        },
        {
            "Octave": 3,
            "NoteNumber": 55,
            "Length": 479.0,
            "Time": 73440.0,
            "EndTime": 73919.0,
            "Velocity": 64,
            "OffVelocity": 0
        },
        {
            "Octave": 3,
            "NoteNumber": 59,
            "Length": 479.0,
            "Time": 73440.0,
            "EndTime": 73919.0,
            "Velocity": 64,
            "OffVelocity": 0
        },
        {
            "Octave": 4,
            "NoteNumber": 65,
            "Length": 479.0,
            "Time": 73440.0,
            "EndTime": 73919.0,
            "Velocity": 64,
            "OffVelocity": 0
        },
        {
            "Octave": 3,
            "NoteNumber": 48,
            "Length": 1439.0,
            "Time": 73920.0,
            "EndTime": 75359.0,
            "Velocity": 64,
            "OffVelocity": 0
        },
        {
            "Octave": 3,
            "NoteNumber": 55,
            "Length": 959.0,
            "Time": 74400.0,
            "EndTime": 75359.0,
            "Velocity": 64,
            "OffVelocity": 0
        },
        {
            "Octave": 4,
            "NoteNumber": 60,
            "Length": 959.0,
            "Time": 74400.0,
            "EndTime": 75359.0,
            "Velocity": 64,
            "OffVelocity": 0
        },
        {
            "Octave": 4,
            "NoteNumber": 64,
            "Length": 959.0,
            "Time": 74400.0,
            "EndTime": 75359.0,
            "Velocity": 64,
            "OffVelocity": 0
        },
        {
            "Octave": 3,
            "NoteNumber": 55,
            "Length": 479.0,
            "Time": 74880.0,
            "EndTime": 75359.0,
            "Velocity": 64,
            "OffVelocity": 0
        },
        {
            "Octave": 4,
            "NoteNumber": 60,
            "Length": 479.0,
            "Time": 74880.0,
            "EndTime": 75359.0,
            "Velocity": 64,
            "OffVelocity": 0
        },
        {
            "Octave": 4,
            "NoteNumber": 64,
            "Length": 479.0,
            "Time": 74880.0,
            "EndTime": 75359.0,
            "Velocity": 64,
            "OffVelocity": 0
        },
        {
            "Octave": 2,
            "NoteNumber": 45,
            "Length": 959.0,
            "Time": 75360.0,
            "EndTime": 76319.0,
            "Velocity": 64,
            "OffVelocity": 0
        },
        {
            "Octave": 3,
            "NoteNumber": 57,
            "Length": 479.0,
            "Time": 75840.0,
            "EndTime": 76319.0,
            "Velocity": 64,
            "OffVelocity": 0
        },
        {
            "Octave": 4,
            "NoteNumber": 60,
            "Length": 479.0,
            "Time": 75840.0,
            "EndTime": 76319.0,
            "Velocity": 64,
            "OffVelocity": 0
        },
        {
            "Octave": 4,
            "NoteNumber": 64,
            "Length": 479.0,
            "Time": 75840.0,
            "EndTime": 76319.0,
            "Velocity": 64,
            "OffVelocity": 0
        },
        {
            "Octave": 3,
            "NoteNumber": 57,
            "Length": 479.0,
            "Time": 76320.0,
            "EndTime": 76799.0,
            "Velocity": 64,
            "OffVelocity": 0
        },
        {
            "Octave": 4,
            "NoteNumber": 60,
            "Length": 479.0,
            "Time": 76320.0,
            "EndTime": 76799.0,
            "Velocity": 64,
            "OffVelocity": 0
        },
        {
            "Octave": 4,
            "NoteNumber": 64,
            "Length": 479.0,
            "Time": 76320.0,
            "EndTime": 76799.0,
            "Velocity": 64,
            "OffVelocity": 0
        },
        {
            "Octave": 2,
            "NoteNumber": 38,
            "Length": 959.0,
            "Time": 76800.0,
            "EndTime": 77759.0,
            "Velocity": 64,
            "OffVelocity": 0
        },
        {
            "Octave": 3,
            "NoteNumber": 57,
            "Length": 479.0,
            "Time": 77280.0,
            "EndTime": 77759.0,
            "Velocity": 64,
            "OffVelocity": 0
        },
        {
            "Octave": 4,
            "NoteNumber": 62,
            "Length": 479.0,
            "Time": 77280.0,
            "EndTime": 77759.0,
            "Velocity": 64,
            "OffVelocity": 0
        },
        {
            "Octave": 4,
            "NoteNumber": 65,
            "Length": 479.0,
            "Time": 77280.0,
            "EndTime": 77759.0,
            "Velocity": 64,
            "OffVelocity": 0
        },
        {
            "Octave": 3,
            "NoteNumber": 57,
            "Length": 479.0,
            "Time": 77760.0,
            "EndTime": 78239.0,
            "Velocity": 64,
            "OffVelocity": 0
        },
        {
            "Octave": 4,
            "NoteNumber": 62,
            "Length": 479.0,
            "Time": 77760.0,
            "EndTime": 78239.0,
            "Velocity": 64,
            "OffVelocity": 0
        },
        {
            "Octave": 4,
            "NoteNumber": 65,
            "Length": 479.0,
            "Time": 77760.0,
            "EndTime": 78239.0,
            "Velocity": 64,
            "OffVelocity": 0
        },
        {
            "Octave": 1,
            "NoteNumber": 35,
            "Length": 959.0,
            "Time": 78240.0,
            "EndTime": 79199.0,
            "Velocity": 64,
            "OffVelocity": 0
        },
        {
            "Octave": 3,
            "NoteNumber": 57,
            "Length": 479.0,
            "Time": 78720.0,
            "EndTime": 79199.0,
            "Velocity": 64,
            "OffVelocity": 0
        },
        {
            "Octave": 3,
            "NoteNumber": 59,
            "Length": 479.0,
            "Time": 78720.0,
            "EndTime": 79199.0,
            "Velocity": 64,
            "OffVelocity": 0
        },
        {
            "Octave": 4,
            "NoteNumber": 63,
            "Length": 479.0,
            "Time": 78720.0,
            "EndTime": 79199.0,
            "Velocity": 64,
            "OffVelocity": 0
        },
        {
            "Octave": 3,
            "NoteNumber": 57,
            "Length": 479.0,
            "Time": 79200.0,
            "EndTime": 79679.0,
            "Velocity": 64,
            "OffVelocity": 0
        },
        {
            "Octave": 3,
            "NoteNumber": 59,
            "Length": 479.0,
            "Time": 79200.0,
            "EndTime": 79679.0,
            "Velocity": 64,
            "OffVelocity": 0
        },
        {
            "Octave": 4,
            "NoteNumber": 63,
            "Length": 479.0,
            "Time": 79200.0,
            "EndTime": 79679.0,
            "Velocity": 64,
            "OffVelocity": 0
        },
        {
            "Octave": 2,
            "NoteNumber": 40,
            "Length": 959.0,
            "Time": 79680.0,
            "EndTime": 80639.0,
            "Velocity": 64,
            "OffVelocity": 0
        },
        {
            "Octave": 3,
            "NoteNumber": 52,
            "Length": 479.0,
            "Time": 80160.0,
            "EndTime": 80639.0,
            "Velocity": 64,
            "OffVelocity": 0
        },
        {
            "Octave": 3,
            "NoteNumber": 59,
            "Length": 479.0,
            "Time": 80160.0,
            "EndTime": 80639.0,
            "Velocity": 64,
            "OffVelocity": 0
        },
        {
            "Octave": 4,
            "NoteNumber": 62,
            "Length": 479.0,
            "Time": 80160.0,
            "EndTime": 80639.0,
            "Velocity": 64,
            "OffVelocity": 0
        },
        {
            "Octave": 2,
            "NoteNumber": 40,
            "Length": 479.0,
            "Time": 81120.0,
            "EndTime": 81599.0,
            "Velocity": 64,
            "OffVelocity": 0
        },
        {
            "Octave": 3,
            "NoteNumber": 52,
            "Length": 479.0,
            "Time": 81600.0,
            "EndTime": 82079.0,
            "Velocity": 64,
            "OffVelocity": 0
        },
        {
            "Octave": 3,
            "NoteNumber": 56,
            "Length": 479.0,
            "Time": 81600.0,
            "EndTime": 82079.0,
            "Velocity": 64,
            "OffVelocity": 0
        },
        {
            "Octave": 4,
            "NoteNumber": 62,
            "Length": 479.0,
            "Time": 81600.0,
            "EndTime": 82079.0,
            "Velocity": 64,
            "OffVelocity": 0
        },
        {
            "Octave": 3,
            "NoteNumber": 52,
            "Length": 479.0,
            "Time": 82080.0,
            "EndTime": 82559.0,
            "Velocity": 64,
            "OffVelocity": 0
        },
        {
            "Octave": 3,
            "NoteNumber": 56,
            "Length": 479.0,
            "Time": 82080.0,
            "EndTime": 82559.0,
            "Velocity": 64,
            "OffVelocity": 0
        },
        {
            "Octave": 4,
            "NoteNumber": 62,
            "Length": 479.0,
            "Time": 82080.0,
            "EndTime": 82559.0,
            "Velocity": 64,
            "OffVelocity": 0
        },
        {
            "Octave": 2,
            "NoteNumber": 45,
            "Length": 479.0,
            "Time": 82560.0,
            "EndTime": 83039.0,
            "Velocity": 64,
            "OffVelocity": 0
        },
        {
            "Octave": 3,
            "NoteNumber": 52,
            "Length": 479.0,
            "Time": 83040.0,
            "EndTime": 83519.0,
            "Velocity": 64,
            "OffVelocity": 0
        },
        {
            "Octave": 3,
            "NoteNumber": 57,
            "Length": 479.0,
            "Time": 83040.0,
            "EndTime": 83519.0,
            "Velocity": 64,
            "OffVelocity": 0
        },
        {
            "Octave": 4,
            "NoteNumber": 61,
            "Length": 479.0,
            "Time": 83040.0,
            "EndTime": 83519.0,
            "Velocity": 64,
            "OffVelocity": 0
        },
        {
            "Octave": 3,
            "NoteNumber": 52,
            "Length": 479.0,
            "Time": 83520.0,
            "EndTime": 83999.0,
            "Velocity": 64,
            "OffVelocity": 0
        },
        {
            "Octave": 3,
            "NoteNumber": 57,
            "Length": 479.0,
            "Time": 83520.0,
            "EndTime": 83999.0,
            "Velocity": 64,
            "OffVelocity": 0
        },
        {
            "Octave": 4,
            "NoteNumber": 61,
            "Length": 479.0,
            "Time": 83520.0,
            "EndTime": 83999.0,
            "Velocity": 64,
            "OffVelocity": 0
        },
        {
            "Octave": 2,
            "NoteNumber": 40,
            "Length": 479.0,
            "Time": 84000.0,
            "EndTime": 84479.0,
            "Velocity": 64,
            "OffVelocity": 0
        },
        {
            "Octave": 3,
            "NoteNumber": 52,
            "Length": 479.0,
            "Time": 84480.0,
            "EndTime": 84959.0,
            "Velocity": 64,
            "OffVelocity": 0
        },
        {
            "Octave": 3,
            "NoteNumber": 56,
            "Length": 479.0,
            "Time": 84480.0,
            "EndTime": 84959.0,
            "Velocity": 64,
            "OffVelocity": 0
        },
        {
            "Octave": 4,
            "NoteNumber": 62,
            "Length": 479.0,
            "Time": 84480.0,
            "EndTime": 84959.0,
            "Velocity": 64,
            "OffVelocity": 0
        },
        {
            "Octave": 3,
            "NoteNumber": 52,
            "Length": 479.0,
            "Time": 84960.0,
            "EndTime": 85439.0,
            "Velocity": 64,
            "OffVelocity": 0
        },
        {
            "Octave": 3,
            "NoteNumber": 56,
            "Length": 479.0,
            "Time": 84960.0,
            "EndTime": 85439.0,
            "Velocity": 64,
            "OffVelocity": 0
        },
        {
            "Octave": 4,
            "NoteNumber": 62,
            "Length": 479.0,
            "Time": 84960.0,
            "EndTime": 85439.0,
            "Velocity": 64,
            "OffVelocity": 0
        },
        {
            "Octave": 2,
            "NoteNumber": 45,
            "Length": 479.0,
            "Time": 85440.0,
            "EndTime": 85919.0,
            "Velocity": 64,
            "OffVelocity": 0
        },
        {
            "Octave": 3,
            "NoteNumber": 52,
            "Length": 479.0,
            "Time": 85920.0,
            "EndTime": 86399.0,
            "Velocity": 64,
            "OffVelocity": 0
        },
        {
            "Octave": 3,
            "NoteNumber": 57,
            "Length": 479.0,
            "Time": 85920.0,
            "EndTime": 86399.0,
            "Velocity": 64,
            "OffVelocity": 0
        },
        {
            "Octave": 4,
            "NoteNumber": 61,
            "Length": 479.0,
            "Time": 85920.0,
            "EndTime": 86399.0,
            "Velocity": 64,
            "OffVelocity": 0
        },
        {
            "Octave": 3,
            "NoteNumber": 52,
            "Length": 479.0,
            "Time": 86400.0,
            "EndTime": 86879.0,
            "Velocity": 64,
            "OffVelocity": 0
        },
        {
            "Octave": 3,
            "NoteNumber": 57,
            "Length": 479.0,
            "Time": 86400.0,
            "EndTime": 86879.0,
            "Velocity": 64,
            "OffVelocity": 0
        },
        {
            "Octave": 4,
            "NoteNumber": 61,
            "Length": 479.0,
            "Time": 86400.0,
            "EndTime": 86879.0,
            "Velocity": 64,
            "OffVelocity": 0
        },
        {
            "Octave": 2,
            "NoteNumber": 40,
            "Length": 479.0,
            "Time": 86880.0,
            "EndTime": 87359.0,
            "Velocity": 64,
            "OffVelocity": 0
        },
        {
            "Octave": 3,
            "NoteNumber": 52,
            "Length": 479.0,
            "Time": 87360.0,
            "EndTime": 87839.0,
            "Velocity": 64,
            "OffVelocity": 0
        },
        {
            "Octave": 3,
            "NoteNumber": 56,
            "Length": 479.0,
            "Time": 87360.0,
            "EndTime": 87839.0,
            "Velocity": 64,
            "OffVelocity": 0
        },
        {
            "Octave": 4,
            "NoteNumber": 62,
            "Length": 479.0,
            "Time": 87360.0,
            "EndTime": 87839.0,
            "Velocity": 64,
            "OffVelocity": 0
        },
        {
            "Octave": 3,
            "NoteNumber": 52,
            "Length": 479.0,
            "Time": 87840.0,
            "EndTime": 88319.0,
            "Velocity": 64,
            "OffVelocity": 0
        },
        {
            "Octave": 3,
            "NoteNumber": 56,
            "Length": 479.0,
            "Time": 87840.0,
            "EndTime": 88319.0,
            "Velocity": 64,
            "OffVelocity": 0
        },
        {
            "Octave": 4,
            "NoteNumber": 62,
            "Length": 479.0,
            "Time": 87840.0,
            "EndTime": 88319.0,
            "Velocity": 64,
            "OffVelocity": 0
        },
        {
            "Octave": 2,
            "NoteNumber": 45,
            "Length": 479.0,
            "Time": 88320.0,
            "EndTime": 88799.0,
            "Velocity": 64,
            "OffVelocity": 0
        },
        {
            "Octave": 3,
            "NoteNumber": 52,
            "Length": 479.0,
            "Time": 88800.0,
            "EndTime": 89279.0,
            "Velocity": 64,
            "OffVelocity": 0
        },
        {
            "Octave": 3,
            "NoteNumber": 57,
            "Length": 479.0,
            "Time": 88800.0,
            "EndTime": 89279.0,
            "Velocity": 64,
            "OffVelocity": 0
        },
        {
            "Octave": 4,
            "NoteNumber": 61,
            "Length": 479.0,
            "Time": 88800.0,
            "EndTime": 89279.0,
            "Velocity": 64,
            "OffVelocity": 0
        },
        {
            "Octave": 3,
            "NoteNumber": 52,
            "Length": 479.0,
            "Time": 89280.0,
            "EndTime": 89759.0,
            "Velocity": 64,
            "OffVelocity": 0
        },
        {
            "Octave": 3,
            "NoteNumber": 57,
            "Length": 479.0,
            "Time": 89280.0,
            "EndTime": 89759.0,
            "Velocity": 64,
            "OffVelocity": 0
        },
        {
            "Octave": 4,
            "NoteNumber": 61,
            "Length": 479.0,
            "Time": 89280.0,
            "EndTime": 89759.0,
            "Velocity": 64,
            "OffVelocity": 0
        },
        {
            "Octave": 2,
            "NoteNumber": 40,
            "Length": 479.0,
            "Time": 89760.0,
            "EndTime": 90239.0,
            "Velocity": 64,
            "OffVelocity": 0
        },
        {
            "Octave": 3,
            "NoteNumber": 52,
            "Length": 479.0,
            "Time": 90240.0,
            "EndTime": 90719.0,
            "Velocity": 64,
            "OffVelocity": 0
        },
        {
            "Octave": 3,
            "NoteNumber": 56,
            "Length": 479.0,
            "Time": 90240.0,
            "EndTime": 90719.0,
            "Velocity": 64,
            "OffVelocity": 0
        },
        {
            "Octave": 4,
            "NoteNumber": 62,
            "Length": 479.0,
            "Time": 90240.0,
            "EndTime": 90719.0,
            "Velocity": 64,
            "OffVelocity": 0
        },
        {
            "Octave": 3,
            "NoteNumber": 52,
            "Length": 479.0,
            "Time": 90720.0,
            "EndTime": 91199.0,
            "Velocity": 64,
            "OffVelocity": 0
        },
        {
            "Octave": 3,
            "NoteNumber": 56,
            "Length": 479.0,
            "Time": 90720.0,
            "EndTime": 91199.0,
            "Velocity": 64,
            "OffVelocity": 0
        },
        {
            "Octave": 4,
            "NoteNumber": 62,
            "Length": 479.0,
            "Time": 90720.0,
            "EndTime": 91199.0,
            "Velocity": 64,
            "OffVelocity": 0
        },
        {
            "Octave": 2,
            "NoteNumber": 45,
            "Length": 479.0,
            "Time": 91200.0,
            "EndTime": 91679.0,
            "Velocity": 64,
            "OffVelocity": 0
        },
        {
            "Octave": 3,
            "NoteNumber": 52,
            "Length": 479.0,
            "Time": 91680.0,
            "EndTime": 92159.0,
            "Velocity": 64,
            "OffVelocity": 0
        },
        {
            "Octave": 4,
            "NoteNumber": 61,
            "Length": 479.0,
            "Time": 91680.0,
            "EndTime": 92159.0,
            "Velocity": 64,
            "OffVelocity": 0
        },
        {
            "Octave": 1,
            "NoteNumber": 33,
            "Length": 479.0,
            "Time": 92640.0,
            "EndTime": 93119.0,
            "Velocity": 64,
            "OffVelocity": 0
        },
        {
            "Octave": 3,
            "NoteNumber": 57,
            "Length": 479.0,
            "Time": 93120.0,
            "EndTime": 93599.0,
            "Velocity": 64,
            "OffVelocity": 0
        },
        {
            "Octave": 4,
            "NoteNumber": 60,
            "Length": 479.0,
            "Time": 93120.0,
            "EndTime": 93599.0,
            "Velocity": 64,
            "OffVelocity": 0
        },
        {
            "Octave": 4,
            "NoteNumber": 64,
            "Length": 479.0,
            "Time": 93120.0,
            "EndTime": 93599.0,
            "Velocity": 64,
            "OffVelocity": 0
        },
        {
            "Octave": 3,
            "NoteNumber": 57,
            "Length": 479.0,
            "Time": 93600.0,
            "EndTime": 94079.0,
            "Velocity": 64,
            "OffVelocity": 0
        },
        {
            "Octave": 4,
            "NoteNumber": 60,
            "Length": 479.0,
            "Time": 93600.0,
            "EndTime": 94079.0,
            "Velocity": 64,
            "OffVelocity": 0
        },
        {
            "Octave": 4,
            "NoteNumber": 64,
            "Length": 479.0,
            "Time": 93600.0,
            "EndTime": 94079.0,
            "Velocity": 64,
            "OffVelocity": 0
        },
        {
            "Octave": 2,
            "NoteNumber": 38,
            "Length": 479.0,
            "Time": 94080.0,
            "EndTime": 94559.0,
            "Velocity": 64,
            "OffVelocity": 0
        },
        {
            "Octave": 3,
            "NoteNumber": 57,
            "Length": 479.0,
            "Time": 94560.0,
            "EndTime": 95039.0,
            "Velocity": 64,
            "OffVelocity": 0
        },
        {
            "Octave": 4,
            "NoteNumber": 62,
            "Length": 479.0,
            "Time": 94560.0,
            "EndTime": 95039.0,
            "Velocity": 64,
            "OffVelocity": 0
        },
        {
            "Octave": 4,
            "NoteNumber": 65,
            "Length": 479.0,
            "Time": 94560.0,
            "EndTime": 95039.0,
            "Velocity": 64,
            "OffVelocity": 0
        },
        {
            "Octave": 3,
            "NoteNumber": 57,
            "Length": 479.0,
            "Time": 95040.0,
            "EndTime": 95519.0,
            "Velocity": 64,
            "OffVelocity": 0
        },
        {
            "Octave": 4,
            "NoteNumber": 62,
            "Length": 479.0,
            "Time": 95040.0,
            "EndTime": 95519.0,
            "Velocity": 64,
            "OffVelocity": 0
        },
        {
            "Octave": 4,
            "NoteNumber": 65,
            "Length": 479.0,
            "Time": 95040.0,
            "EndTime": 95519.0,
            "Velocity": 64,
            "OffVelocity": 0
        },
        {
            "Octave": 2,
            "NoteNumber": 43,
            "Length": 479.0,
            "Time": 95520.0,
            "EndTime": 95999.0,
            "Velocity": 64,
            "OffVelocity": 0
        },
        {
            "Octave": 3,
            "NoteNumber": 55,
            "Length": 479.0,
            "Time": 96000.0,
            "EndTime": 96479.0,
            "Velocity": 64,
            "OffVelocity": 0
        },
        {
            "Octave": 3,
            "NoteNumber": 59,
            "Length": 479.0,
            "Time": 96000.0,
            "EndTime": 96479.0,
            "Velocity": 64,
            "OffVelocity": 0
        },
        {
            "Octave": 4,
            "NoteNumber": 65,
            "Length": 479.0,
            "Time": 96000.0,
            "EndTime": 96479.0,
            "Velocity": 64,
            "OffVelocity": 0
        },
        {
            "Octave": 3,
            "NoteNumber": 55,
            "Length": 479.0,
            "Time": 96480.0,
            "EndTime": 96959.0,
            "Velocity": 64,
            "OffVelocity": 0
        },
        {
            "Octave": 3,
            "NoteNumber": 59,
            "Length": 479.0,
            "Time": 96480.0,
            "EndTime": 96959.0,
            "Velocity": 64,
            "OffVelocity": 0
        },
        {
            "Octave": 4,
            "NoteNumber": 65,
            "Length": 479.0,
            "Time": 96480.0,
            "EndTime": 96959.0,
            "Velocity": 64,
            "OffVelocity": 0
        },
        {
            "Octave": 3,
            "NoteNumber": 48,
            "Length": 479.0,
            "Time": 96960.0,
            "EndTime": 97439.0,
            "Velocity": 64,
            "OffVelocity": 0
        },
        {
            "Octave": 3,
            "NoteNumber": 55,
            "Length": 479.0,
            "Time": 97440.0,
            "EndTime": 97919.0,
            "Velocity": 64,
            "OffVelocity": 0
        },
        {
            "Octave": 4,
            "NoteNumber": 60,
            "Length": 479.0,
            "Time": 97440.0,
            "EndTime": 97919.0,
            "Velocity": 64,
            "OffVelocity": 0
        },
        {
            "Octave": 4,
            "NoteNumber": 64,
            "Length": 479.0,
            "Time": 97440.0,
            "EndTime": 97919.0,
            "Velocity": 64,
            "OffVelocity": 0
        },
        {
            "Octave": 3,
            "NoteNumber": 55,
            "Length": 479.0,
            "Time": 97920.0,
            "EndTime": 98399.0,
            "Velocity": 64,
            "OffVelocity": 0
        },
        {
            "Octave": 4,
            "NoteNumber": 60,
            "Length": 479.0,
            "Time": 97920.0,
            "EndTime": 98399.0,
            "Velocity": 64,
            "OffVelocity": 0
        },
        {
            "Octave": 4,
            "NoteNumber": 64,
            "Length": 479.0,
            "Time": 97920.0,
            "EndTime": 98399.0,
            "Velocity": 64,
            "OffVelocity": 0
        },
        {
            "Octave": 2,
            "NoteNumber": 45,
            "Length": 479.0,
            "Time": 98400.0,
            "EndTime": 98879.0,
            "Velocity": 64,
            "OffVelocity": 0
        },
        {
            "Octave": 3,
            "NoteNumber": 57,
            "Length": 479.0,
            "Time": 98880.0,
            "EndTime": 99359.0,
            "Velocity": 64,
            "OffVelocity": 0
        },
        {
            "Octave": 4,
            "NoteNumber": 60,
            "Length": 479.0,
            "Time": 98880.0,
            "EndTime": 99359.0,
            "Velocity": 64,
            "OffVelocity": 0
        },
        {
            "Octave": 4,
            "NoteNumber": 64,
            "Length": 479.0,
            "Time": 98880.0,
            "EndTime": 99359.0,
            "Velocity": 64,
            "OffVelocity": 0
        },
        {
            "Octave": 3,
            "NoteNumber": 57,
            "Length": 479.0,
            "Time": 99360.0,
            "EndTime": 99839.0,
            "Velocity": 64,
            "OffVelocity": 0
        },
        {
            "Octave": 4,
            "NoteNumber": 60,
            "Length": 479.0,
            "Time": 99360.0,
            "EndTime": 99839.0,
            "Velocity": 64,
            "OffVelocity": 0
        },
        {
            "Octave": 4,
            "NoteNumber": 64,
            "Length": 479.0,
            "Time": 99360.0,
            "EndTime": 99839.0,
            "Velocity": 64,
            "OffVelocity": 0
        },
        {
            "Octave": 2,
            "NoteNumber": 38,
            "Length": 479.0,
            "Time": 99840.0,
            "EndTime": 100319.0,
            "Velocity": 64,
            "OffVelocity": 0
        },
        {
            "Octave": 3,
            "NoteNumber": 57,
            "Length": 479.0,
            "Time": 100320.0,
            "EndTime": 100799.0,
            "Velocity": 64,
            "OffVelocity": 0
        },
        {
            "Octave": 4,
            "NoteNumber": 62,
            "Length": 479.0,
            "Time": 100320.0,
            "EndTime": 100799.0,
            "Velocity": 64,
            "OffVelocity": 0
        },
        {
            "Octave": 4,
            "NoteNumber": 65,
            "Length": 479.0,
            "Time": 100320.0,
            "EndTime": 100799.0,
            "Velocity": 64,
            "OffVelocity": 0
        },
        {
            "Octave": 3,
            "NoteNumber": 57,
            "Length": 479.0,
            "Time": 100800.0,
            "EndTime": 101279.0,
            "Velocity": 64,
            "OffVelocity": 0
        },
        {
            "Octave": 4,
            "NoteNumber": 62,
            "Length": 479.0,
            "Time": 100800.0,
            "EndTime": 101279.0,
            "Velocity": 64,
            "OffVelocity": 0
        },
        {
            "Octave": 4,
            "NoteNumber": 65,
            "Length": 479.0,
            "Time": 100800.0,
            "EndTime": 101279.0,
            "Velocity": 64,
            "OffVelocity": 0
        },
        {
            "Octave": 2,
            "NoteNumber": 43,
            "Length": 479.0,
            "Time": 101280.0,
            "EndTime": 101759.0,
            "Velocity": 64,
            "OffVelocity": 0
        },
        {
            "Octave": 3,
            "NoteNumber": 55,
            "Length": 479.0,
            "Time": 101760.0,
            "EndTime": 102239.0,
            "Velocity": 64,
            "OffVelocity": 0
        },
        {
            "Octave": 3,
            "NoteNumber": 59,
            "Length": 479.0,
            "Time": 101760.0,
            "EndTime": 102239.0,
            "Velocity": 64,
            "OffVelocity": 0
        },
        {
            "Octave": 4,
            "NoteNumber": 65,
            "Length": 479.0,
            "Time": 101760.0,
            "EndTime": 102239.0,
            "Velocity": 64,
            "OffVelocity": 0
        },
        {
            "Octave": 3,
            "NoteNumber": 55,
            "Length": 479.0,
            "Time": 102240.0,
            "EndTime": 102719.0,
            "Velocity": 64,
            "OffVelocity": 0
        },
        {
            "Octave": 3,
            "NoteNumber": 59,
            "Length": 479.0,
            "Time": 102240.0,
            "EndTime": 102719.0,
            "Velocity": 64,
            "OffVelocity": 0
        },
        {
            "Octave": 4,
            "NoteNumber": 65,
            "Length": 479.0,
            "Time": 102240.0,
            "EndTime": 102719.0,
            "Velocity": 64,
            "OffVelocity": 0
        },
        {
            "Octave": 3,
            "NoteNumber": 48,
            "Length": 479.0,
            "Time": 102720.0,
            "EndTime": 103199.0,
            "Velocity": 64,
            "OffVelocity": 0
        },
        {
            "Octave": 3,
            "NoteNumber": 55,
            "Length": 479.0,
            "Time": 103200.0,
            "EndTime": 103679.0,
            "Velocity": 64,
            "OffVelocity": 0
        },
        {
            "Octave": 4,
            "NoteNumber": 64,
            "Length": 479.0,
            "Time": 103200.0,
            "EndTime": 103679.0,
            "Velocity": 64,
            "OffVelocity": 0
        },
        {
            "Octave": 1,
            "NoteNumber": 33,
            "Length": 479.0,
            "Time": 104160.0,
            "EndTime": 104639.0,
            "Velocity": 64,
            "OffVelocity": 0
        },
        {
            "Octave": 3,
            "NoteNumber": 57,
            "Length": 479.0,
            "Time": 104640.0,
            "EndTime": 105119.0,
            "Velocity": 64,
            "OffVelocity": 0
        },
        {
            "Octave": 4,
            "NoteNumber": 60,
            "Length": 479.0,
            "Time": 104640.0,
            "EndTime": 105119.0,
            "Velocity": 64,
            "OffVelocity": 0
        },
        {
            "Octave": 4,
            "NoteNumber": 64,
            "Length": 479.0,
            "Time": 104640.0,
            "EndTime": 105119.0,
            "Velocity": 64,
            "OffVelocity": 0
        },
        {
            "Octave": 3,
            "NoteNumber": 57,
            "Length": 479.0,
            "Time": 105120.0,
            "EndTime": 105599.0,
            "Velocity": 64,
            "OffVelocity": 0
        },
        {
            "Octave": 4,
            "NoteNumber": 60,
            "Length": 479.0,
            "Time": 105120.0,
            "EndTime": 105599.0,
            "Velocity": 64,
            "OffVelocity": 0
        },
        {
            "Octave": 4,
            "NoteNumber": 64,
            "Length": 479.0,
            "Time": 105120.0,
            "EndTime": 105599.0,
            "Velocity": 64,
            "OffVelocity": 0
        },
        {
            "Octave": 2,
            "NoteNumber": 38,
            "Length": 479.0,
            "Time": 105600.0,
            "EndTime": 106079.0,
            "Velocity": 64,
            "OffVelocity": 0
        },
        {
            "Octave": 3,
            "NoteNumber": 57,
            "Length": 479.0,
            "Time": 106080.0,
            "EndTime": 106559.0,
            "Velocity": 64,
            "OffVelocity": 0
        },
        {
            "Octave": 4,
            "NoteNumber": 62,
            "Length": 479.0,
            "Time": 106080.0,
            "EndTime": 106559.0,
            "Velocity": 64,
            "OffVelocity": 0
        },
        {
            "Octave": 4,
            "NoteNumber": 65,
            "Length": 479.0,
            "Time": 106080.0,
            "EndTime": 106559.0,
            "Velocity": 64,
            "OffVelocity": 0
        },
        {
            "Octave": 3,
            "NoteNumber": 57,
            "Length": 479.0,
            "Time": 106560.0,
            "EndTime": 107039.0,
            "Velocity": 64,
            "OffVelocity": 0
        },
        {
            "Octave": 4,
            "NoteNumber": 62,
            "Length": 479.0,
            "Time": 106560.0,
            "EndTime": 107039.0,
            "Velocity": 64,
            "OffVelocity": 0
        },
        {
            "Octave": 4,
            "NoteNumber": 65,
            "Length": 479.0,
            "Time": 106560.0,
            "EndTime": 107039.0,
            "Velocity": 64,
            "OffVelocity": 0
        },
        {
            "Octave": 2,
            "NoteNumber": 40,
            "Length": 479.0,
            "Time": 107040.0,
            "EndTime": 107519.0,
            "Velocity": 64,
            "OffVelocity": 0
        },
        {
            "Octave": 3,
            "NoteNumber": 52,
            "Length": 479.0,
            "Time": 107520.0,
            "EndTime": 107999.0,
            "Velocity": 64,
            "OffVelocity": 0
        },
        {
            "Octave": 3,
            "NoteNumber": 56,
            "Length": 479.0,
            "Time": 107520.0,
            "EndTime": 107999.0,
            "Velocity": 64,
            "OffVelocity": 0
        },
        {
            "Octave": 4,
            "NoteNumber": 62,
            "Length": 479.0,
            "Time": 107520.0,
            "EndTime": 107999.0,
            "Velocity": 64,
            "OffVelocity": 0
        },
        {
            "Octave": 3,
            "NoteNumber": 52,
            "Length": 479.0,
            "Time": 108000.0,
            "EndTime": 108479.0,
            "Velocity": 64,
            "OffVelocity": 0
        },
        {
            "Octave": 3,
            "NoteNumber": 56,
            "Length": 479.0,
            "Time": 108000.0,
            "EndTime": 108479.0,
            "Velocity": 64,
            "OffVelocity": 0
        },
        {
            "Octave": 4,
            "NoteNumber": 62,
            "Length": 479.0,
            "Time": 108000.0,
            "EndTime": 108479.0,
            "Velocity": 64,
            "OffVelocity": 0
        },
        {
            "Octave": 2,
            "NoteNumber": 45,
            "Length": 479.0,
            "Time": 108480.0,
            "EndTime": 108959.0,
            "Velocity": 64,
            "OffVelocity": 0
        },
        {
            "Octave": 3,
            "NoteNumber": 52,
            "Length": 479.0,
            "Time": 108960.0,
            "EndTime": 109439.0,
            "Velocity": 64,
            "OffVelocity": 0
        },
        {
            "Octave": 3,
            "NoteNumber": 57,
            "Length": 479.0,
            "Time": 108960.0,
            "EndTime": 109439.0,
            "Velocity": 64,
            "OffVelocity": 0
        },
        {
            "Octave": 4,
            "NoteNumber": 60,
            "Length": 479.0,
            "Time": 108960.0,
            "EndTime": 109439.0,
            "Velocity": 64,
            "OffVelocity": 0
        },
        {
            "Octave": 3,
            "NoteNumber": 52,
            "Length": 479.0,
            "Time": 109440.0,
            "EndTime": 109919.0,
            "Velocity": 64,
            "OffVelocity": 0
        },
        {
            "Octave": 3,
            "NoteNumber": 57,
            "Length": 479.0,
            "Time": 109440.0,
            "EndTime": 109919.0,
            "Velocity": 64,
            "OffVelocity": 0
        },
        {
            "Octave": 4,
            "NoteNumber": 60,
            "Length": 479.0,
            "Time": 109440.0,
            "EndTime": 109919.0,
            "Velocity": 64,
            "OffVelocity": 0
        },
        {
            "Octave": 3,
            "NoteNumber": 48,
            "Length": 479.0,
            "Time": 109920.0,
            "EndTime": 110399.0,
            "Velocity": 64,
            "OffVelocity": 0
        },
        {
            "Octave": 3,
            "NoteNumber": 52,
            "Length": 479.0,
            "Time": 110400.0,
            "EndTime": 110879.0,
            "Velocity": 64,
            "OffVelocity": 0
        },
        {
            "Octave": 3,
            "NoteNumber": 57,
            "Length": 479.0,
            "Time": 110400.0,
            "EndTime": 110879.0,
            "Velocity": 64,
            "OffVelocity": 0
        },
        {
            "Octave": 4,
            "NoteNumber": 64,
            "Length": 479.0,
            "Time": 110400.0,
            "EndTime": 110879.0,
            "Velocity": 64,
            "OffVelocity": 0
        },
        {
            "Octave": 3,
            "NoteNumber": 50,
            "Length": 479.0,
            "Time": 111360.0,
            "EndTime": 111839.0,
            "Velocity": 64,
            "OffVelocity": 0
        },
        {
            "Octave": 3,
            "NoteNumber": 57,
            "Length": 479.0,
            "Time": 111840.0,
            "EndTime": 112319.0,
            "Velocity": 64,
            "OffVelocity": 0
        },
        {
            "Octave": 3,
            "NoteNumber": 59,
            "Length": 479.0,
            "Time": 111840.0,
            "EndTime": 112319.0,
            "Velocity": 64,
            "OffVelocity": 0
        },
        {
            "Octave": 4,
            "NoteNumber": 65,
            "Length": 479.0,
            "Time": 111840.0,
            "EndTime": 112319.0,
            "Velocity": 64,
            "OffVelocity": 0
        },
        {
            "Octave": 2,
            "NoteNumber": 40,
            "Length": 479.0,
            "Time": 112800.0,
            "EndTime": 113279.0,
            "Velocity": 64,
            "OffVelocity": 0
        },
        {
            "Octave": 3,
            "NoteNumber": 52,
            "Length": 479.0,
            "Time": 113280.0,
            "EndTime": 113759.0,
            "Velocity": 64,
            "OffVelocity": 0
        },
        {
            "Octave": 4,
            "NoteNumber": 60,
            "Length": 479.0,
            "Time": 113280.0,
            "EndTime": 113759.0,
            "Velocity": 64,
            "OffVelocity": 0
        },
        {
            "Octave": 3,
            "NoteNumber": 52,
            "Length": 479.0,
            "Time": 113760.0,
            "EndTime": 114239.0,
            "Velocity": 64,
            "OffVelocity": 0
        },
        {
            "Octave": 3,
            "NoteNumber": 59,
            "Length": 479.0,
            "Time": 113760.0,
            "EndTime": 114239.0,
            "Velocity": 64,
            "OffVelocity": 0
        },
        {
            "Octave": 4,
            "NoteNumber": 62,
            "Length": 479.0,
            "Time": 113760.0,
            "EndTime": 114239.0,
            "Velocity": 64,
            "OffVelocity": 0
        },
        {
            "Octave": 2,
            "NoteNumber": 45,
            "Length": 479.0,
            "Time": 114240.0,
            "EndTime": 114719.0,
            "Velocity": 64,
            "OffVelocity": 0
        },
        {
            "Octave": 3,
            "NoteNumber": 52,
            "Length": 479.0,
            "Time": 114720.0,
            "EndTime": 115199.0,
            "Velocity": 64,
            "OffVelocity": 0
        },
        {
            "Octave": 4,
            "NoteNumber": 60,
            "Length": 479.0,
            "Time": 114720.0,
            "EndTime": 115199.0,
            "Velocity": 64,
            "OffVelocity": 0
        }
    ]
}